<svg width="602" height="604" viewBox="0 0 602 604" fill="none" xmlns="http://www.w3.org/2000/svg">
<path fill-rule="evenodd" clip-rule="evenodd" d="M307.636 8.74564C368.623 4.81786 433.018 -12.3841 487.114 16.0483C542.59 45.2053 586.236 100.809 599.385 162.085C611.847 220.159 569.624 273.358 554.662 330.839C541.729 380.529 553.371 440.445 517.398 477.082C481.622 513.519 419.617 496.574 372.531 516.334C316.748 539.744 277.283 610.77 217.286 603.026C158.623 595.455 115.348 535.576 94.0535 480.392C74.7804 430.447 124.34 375.252 109.538 323.804C90.6337 258.098 -7.37883 222.955 0.443425 155.032C7.59922 92.8961 85.9533 65.1392 142.424 38.2476C193.975 13.6985 250.656 12.4154 307.636 8.74564Z" fill="url(#paint0_linear_34_1783)"/>
<defs>
<linearGradient id="paint0_linear_34_1783" x1="0" y1="301.807" x2="601.655" y2="301.807" gradientUnits="userSpaceOnUse">
<stop stop-color="#00F5A0"/>
<stop offset="1" stop-color="#00D9F5"/>
</linearGradient>
</defs>
</svg>
