<svg width="958" height="877" viewBox="0 0 958 877" fill="none" xmlns="http://www.w3.org/2000/svg">
<path fill-rule="evenodd" clip-rule="evenodd" d="M228.673 12.5005C298.343 -30.0724 377.809 70.6021 457.121 88.9252C524.414 104.472 598.572 82.3203 660.609 112.29C723.937 142.882 761.324 206.292 808.078 258.468C861.039 317.571 959.45 362.157 955.554 441.441C951.362 526.742 821.712 555.254 789.59 634.696C760.324 707.072 854.18 829.329 784.253 865.083C698.199 909.083 607.508 796.823 513.472 775.878C473.112 766.889 430.74 787.836 390.736 777.435C353.13 767.658 331.282 719.216 292.349 718.39C200.976 716.451 101.352 820.707 26.171 769.698C-32.5894 729.831 29.0436 625.355 62.9884 562.774C92.0761 509.147 182.641 503.786 201.76 445.979C220.945 387.971 155.794 331.576 159.57 270.748C165.152 180.851 151.122 59.8889 228.673 12.5005Z" stroke="#E2E2E2" stroke-width="3"/>
</svg>
