<svg width="60" height="60" viewBox="0 0 60 60" fill="none" xmlns="http://www.w3.org/2000/svg">
<path d="M46.6189 56.9088H13.4657C11.6068 56.9088 10.1 55.4019 10.1 53.543V6.3658C10.1 4.5069 11.6068 3 13.4657 3H37.7976L49.9846 15.187V53.543C49.9846 55.4019 48.4778 56.9088 46.6189 56.9088Z" fill="#DD5858"/>
<path d="M41.9068 12.9291C41.5702 12.9852 38.9539 14.1923 38.9539 14.1923L49.9847 23.4193V15.1871L41.9068 12.9291Z" fill="#CE4A4A"/>
<path d="M49.9847 15.187H41.458C39.4365 15.187 37.7977 13.5482 37.7977 11.5267V3.00002L49.9847 15.187Z" fill="#C6C6C8"/>
<path d="M20.9913 19.1199C23.2194 19.1199 24.5264 20.3088 24.5264 22.098C24.5264 23.8868 23.2194 25.076 20.9913 25.076H19.0738V27.7003H17.949V19.1199H20.9913ZM23.4016 22.098C23.4016 20.8231 22.4589 20.1376 20.9059 20.1376H19.0738V24.0581H20.9059C22.4589 24.0581 23.4016 23.3725 23.4016 22.098Z" fill="white"/>
<path d="M29.0236 19.1197C31.9802 19.1197 33.6944 20.8552 33.6944 23.4154C33.6944 25.9756 31.9802 27.7003 29.0236 27.7003H25.9812V19.1197H29.0236ZM32.5587 23.4154C32.5587 21.3265 31.2304 20.1267 29.0557 20.1267H27.1061V26.683H29.0557C31.2304 26.683 32.5587 25.5043 32.5587 23.4154Z" fill="white"/>
<path d="M41.3834 19.1198V20.1267H36.5093V23.0513L40.912 23.0405V24.0478H36.5093V27.7004H35.3844V19.1198H41.3834Z" fill="white"/>
<path d="M42.6102 34.7732H17.4742C17.4445 34.7732 17.4205 34.7492 17.4205 34.7196V33.7051C17.4205 33.6754 17.4445 33.6514 17.4742 33.6514H42.6102C42.6399 33.6514 42.6639 33.6754 42.6639 33.7051V34.7196C42.6639 34.7492 42.6399 34.7732 42.6102 34.7732Z" fill="white"/>
<path d="M42.6102 41.0233H17.4742C17.4445 41.0233 17.4205 40.9993 17.4205 40.9697V39.9551C17.4205 39.9254 17.4445 39.9015 17.4742 39.9015H42.6102C42.6399 39.9015 42.6639 39.9254 42.6639 39.9551V40.9697C42.6639 40.9993 42.6399 41.0233 42.6102 41.0233Z" fill="white"/>
<path d="M42.6102 47.2734H17.4742C17.4445 47.2734 17.4205 47.2494 17.4205 47.2198V46.2053C17.4205 46.1756 17.4445 46.1516 17.4742 46.1516H42.6102C42.6399 46.1516 42.6639 46.1756 42.6639 46.2053V47.2198C42.6639 47.2494 42.6399 47.2734 42.6102 47.2734Z" fill="white"/>
<path d="M46.6161 56.9031H13.4657C11.6068 56.9031 10.1 55.3962 10.1 53.5374V6.36571C10.1 4.50691 11.6068 3.00011 13.4657 3.00011H37.7983L49.9846 15.1863V53.5392C49.9836 55.3981 48.4759 56.9041 46.6171 56.9031H46.6161Z" fill="#ECEBED"/>
<path d="M49.9819 40.7592V53.5392C49.9819 55.398 48.475 56.9048 46.6162 56.9048H13.4657C11.6069 56.9048 10.1 55.398 10.1 53.5392V40.7592H49.9819Z" fill="#2BAD75"/>
<path d="M41.9049 12.9282C41.5681 12.9845 38.9523 14.1912 38.9523 14.1912L49.9819 23.4176V15.1827L41.9049 12.9282Z" fill="#E1E2E5"/>
<path d="M49.9827 15.1862H41.4563C39.435 15.1862 37.7964 13.5476 37.7964 11.5263V3.00002L49.9827 15.1862Z" fill="#C6C6C8"/>
<path d="M10.1073 40.7591H49.9819V30.5712L40.6937 21.6099L30.2861 32.2327L24.8512 27.2754L10.1073 40.7591Z" fill="#3DC188"/>
<path d="M21.2322 12.4842C23.7143 12.4842 25.7265 14.4965 25.7265 16.9786C25.7265 19.4607 23.7143 21.4728 21.2322 21.4728C18.7501 21.4728 16.7379 19.4607 16.7379 16.9786C16.7379 14.4965 18.7501 12.4842 21.2322 12.4842Z" fill="#F3D55B"/>
<path d="M21.8904 52.7467H20.8826V45.0555H21.8904V52.7467Z" fill="white"/>
<path d="M24.9057 45.0554L27.8728 50.2787L30.8399 45.0554H31.7233V52.7466H30.7165V47.0719L28.2396 51.4509H27.5132L25.0355 47.0719V52.7466H24.0277V45.0554H24.9057Z" fill="white"/>
<path d="M33.4883 48.8961C33.4142 46.7482 35.0951 44.9469 37.2431 44.8727C37.3355 44.8695 37.428 44.8696 37.5205 44.873C39.2416 44.7753 40.8135 45.8466 41.3519 47.4842H40.2569C39.8017 46.4011 38.7121 45.7236 37.5394 45.7945C35.8216 45.8412 34.4669 47.2716 34.5137 48.9895C34.5588 50.6493 35.8993 51.9812 37.5594 52.0157C39.0092 52.1017 40.2698 51.0314 40.4203 49.587H37.3578V48.7136H41.4961V49.0595C41.5283 51.1607 39.8509 52.8903 37.7497 52.9224C37.6735 52.9236 37.5973 52.9225 37.5211 52.9191C35.3734 52.9985 33.568 51.3218 33.4886 49.1741C33.4852 49.0815 33.4851 48.9888 33.4883 48.8961Z" fill="white"/>
</svg>
