<svg width="60" height="60" viewBox="0 0 60 60" fill="none" xmlns="http://www.w3.org/2000/svg">
<path d="M46.6189 56.9088H13.4657C11.6068 56.9088 10.1 55.4019 10.1 53.543V6.3658C10.1 4.507 11.6068 3 13.4657 3H37.7976L49.9846 15.187V53.543C49.9846 55.4019 48.4778 56.9088 46.6189 56.9088Z" fill="#58C658"/>
<path d="M41.9068 12.9291C41.5702 12.9852 38.9539 14.1923 38.9539 14.1923L49.9847 23.4193V15.1871L41.9068 12.9291Z" fill="#56B756"/>
<path d="M49.9846 15.187H41.4579C39.4364 15.187 37.7976 13.5482 37.7976 11.5267V3L49.9846 15.187Z" fill="#E3E5E4"/>
<path d="M41.381 18.631C41.3563 18.5726 41.3103 18.5277 41.2559 18.4961C41.2128 18.471 41.1655 18.4526 41.1121 18.4526H31.9668V17.0375C31.9668 16.6145 31.5715 16.3027 31.1602 16.4011L19.1828 19.2652C18.8883 19.3357 18.6806 19.599 18.6806 19.9017V35.367C18.6806 35.6911 18.9179 35.9664 19.2385 36.0142L31.2159 37.7997C31.6114 37.8586 31.9668 37.5523 31.9668 37.1525V36.2744H41.1121C41.2732 36.2744 41.4039 36.1437 41.4039 35.9825V35.9762C41.4039 35.9512 41.3957 35.9288 41.3897 35.9057C41.3957 35.8825 41.4039 35.8603 41.4039 35.8353V33.1105V33.1043V30.2386V30.2323V27.3668V27.3605V24.4948V24.4884V21.6228V21.6165V18.7509V18.7446C41.4039 18.7042 41.3958 18.666 41.381 18.631ZM34.9805 35.6843H31.9668V33.4025H34.9805V35.6843ZM34.9805 32.8123H31.9668V30.5306H34.9805V32.8123ZM34.9805 29.9405H31.9668V27.6587H34.9805V29.9405ZM34.9805 27.0685H31.9668V24.7866H34.9805V27.0685ZM34.9805 24.1965H31.9668V21.9147H34.9805V24.1965ZM34.9805 21.3246H31.9668V19.0428H34.9805V21.3246ZM40.8138 35.6843H35.5706V33.4025H40.8138V35.6843ZM40.8138 32.8123H35.5706V30.5306H40.8138V32.8123ZM40.8138 29.9405H35.5706V27.6587H40.8138V29.9405ZM40.8138 27.0685H35.5706V24.7866H40.8138V27.0685ZM40.8138 24.1965H35.5706V21.9147H40.8138V24.1965ZM40.8138 21.3246H35.5706V19.0428H40.8138V21.3246Z" fill="white"/>
<path d="M25.7339 27.2455L27.9541 23.6296C28.0934 23.4027 28.0223 23.1053 27.7949 22.9655C27.5674 22.8257 27.2705 22.8973 27.1308 23.1248L25.1673 26.3227L23.2036 23.1248C23.0632 22.8973 22.767 22.8257 22.5396 22.9655C22.3121 23.1053 22.2411 23.4027 22.3803 23.6296L24.6007 27.2455L22.3803 30.8615C22.2411 31.0884 22.3121 31.3859 22.5396 31.5256C22.6184 31.5739 22.7054 31.5972 22.7914 31.5972C22.954 31.5972 23.1121 31.515 23.2036 31.3664L25.1673 28.1684L27.1308 31.3664C27.2223 31.515 27.3805 31.5972 27.5429 31.5972C27.6288 31.5972 27.7162 31.5739 27.7949 31.5256C28.0223 31.3859 28.0934 31.0884 27.9541 30.8615L25.7339 27.2455Z" fill="#58C658"/>
<path d="M16.7089 45.112H17.9075L19.9923 48.0931L22.0959 45.112H23.2469L20.6049 48.8187L23.3411 52.6682H22.1624L19.9734 49.5742L17.7756 52.6682H16.6147L19.341 48.8474L16.7089 45.112Z" fill="white"/>
<path d="M25.3487 51.772H29.4995V52.6681H24.3583V45.1121H25.3487V51.772Z" fill="white"/>
<path d="M36.3756 47.1968H35.3575C35.2534 46.3948 34.5267 45.7812 33.348 45.7812C32.1594 45.7812 31.4891 46.2719 31.4891 46.9509C31.4891 47.7341 32.1871 48.0742 33.801 48.4132C35.6588 48.8097 36.4042 49.5265 36.4042 50.6487C36.4042 52.0079 35.0738 52.8377 33.3945 52.8377C31.6309 52.8377 30.3571 51.875 30.254 50.4138H31.2721C31.3762 51.3288 32.1969 51.9791 33.4609 51.9791C34.593 51.9791 35.395 51.4606 35.395 50.7062C35.395 49.8665 34.7061 49.5265 33.0644 49.1775C31.3572 48.8187 30.4898 48.206 30.4898 46.9509C30.4898 45.6969 31.725 44.9325 33.3945 44.9325C35.055 44.9325 36.2814 45.8763 36.3756 47.1968Z" fill="white"/>
<path d="M36.8375 45.112H38.0361L40.1209 48.0931L42.2245 45.112H43.3755L40.7335 48.8187L43.4697 52.6682H42.291L40.102 49.5742L37.9042 52.6682H36.7433L39.4696 48.8474L36.8375 45.112Z" fill="white"/>
<path d="M46.6189 56.9088H13.4657C11.6068 56.9088 10.1 55.4019 10.1 53.543V6.3658C10.1 4.507 11.6068 3 13.4657 3H37.7976L49.9846 15.187V53.543C49.9846 55.4019 48.4778 56.9088 46.6189 56.9088Z" fill="#9FA0A0"/>
<path d="M41.9068 12.9291C41.5702 12.9852 38.9539 14.1923 38.9539 14.1923L49.9847 23.4193V15.1871L41.9068 12.9291Z" fill="#898989"/>
<path d="M49.9846 15.187H41.4579C39.4364 15.187 37.7976 13.5482 37.7976 11.5267V3L49.9846 15.187Z" fill="#EFEFEF"/>
<path d="M35.7984 19.7452C35.7888 19.3787 35.7641 19.0144 35.7255 18.6564L35.6837 18.2642H24.4307L24.3889 18.6564C24.3504 19.0101 24.3193 19.3808 24.3 19.7656C24.2807 20.1471 24.271 20.5265 24.271 20.9005C24.271 21.2188 24.4147 21.4022 24.525 21.4922C24.6751 21.6208 24.8733 21.6862 25.1145 21.6862C25.4574 21.6862 25.6825 21.6303 25.8368 21.5125C25.9697 21.4149 26.0769 21.2895 26.1787 21.0505C26.2516 20.7151 26.3952 20.4751 26.616 20.3155C26.8464 20.1483 27.1122 20.0678 27.4262 20.0678H28.8076V29.3403C28.8076 29.6232 28.7594 29.7155 28.7658 29.7155H28.7669C28.6683 29.7819 28.5804 29.8193 28.455 29.8375C28.2696 29.8804 28.096 29.9265 27.9374 29.979C27.782 30.0315 27.4219 30.2116 27.4219 30.7571C27.4219 31.0689 27.5826 31.3165 27.8666 31.4376C28.0338 31.5062 28.1967 31.5416 28.3511 31.5416H31.7334C31.9156 31.5416 32.0871 31.5019 32.25 31.4226C32.3946 31.3486 32.6358 31.1611 32.6358 30.7281C32.6358 30.3605 32.4429 30.083 32.1106 29.9854C31.9692 29.9468 31.8116 29.9072 31.6241 29.8643C31.5287 29.844 31.444 29.7979 31.3722 29.7336C31.3722 29.7325 31.3047 29.6382 31.3047 29.2824V20.0678H32.6883C33.0516 20.0678 33.3302 20.1492 33.5403 20.3186C33.7386 20.4772 33.8565 20.7055 33.8993 21.0173L33.94 21.1491C34.0097 21.2938 34.1158 21.4181 34.238 21.5039C34.3955 21.6282 34.6195 21.6862 34.941 21.6862C35.3001 21.6862 35.5005 21.5392 35.6012 21.4224C35.7395 21.267 35.8134 21.0656 35.8134 20.8416C35.8134 20.4729 35.8091 20.1074 35.7984 19.7452Z" fill="white"/>
<path d="M23.2977 37.0487L21.3161 35.0671C21.245 34.996 21.245 34.8807 21.3161 34.8095L23.2977 32.828C23.4124 32.7132 23.6086 32.7945 23.6086 32.9567V36.9199C23.6086 37.0822 23.4124 37.1634 23.2977 37.0487Z" fill="white"/>
<path d="M36.7868 32.828L38.7684 34.8096C38.8395 34.8807 38.8395 34.996 38.7684 35.0672L36.7868 37.0487C36.6721 37.1635 36.4759 37.0822 36.4759 36.92V32.9568C36.4759 32.7945 36.6721 32.7133 36.7868 32.828Z" fill="white"/>
<path d="M38.0126 35.6979H22.4357V34.1787H38.0126V35.6979Z" fill="white"/>
<path d="M19.8305 45.9519V52.7177H18.8261V45.9519H16.0701V45.0527H22.5772V45.9519H19.8305Z" fill="white"/>
<path d="M29.2129 45.0527V45.9425H24.773V48.3541H28.8777V49.244H24.773V51.8277H29.2994V52.7175H23.7678V45.0527H29.2129Z" fill="white"/>
<path d="M30.0777 45.0527H31.2932L33.408 48.0768L35.5422 45.0527H36.7094L34.0298 48.8139L36.8053 52.7175H35.6092L33.3885 49.579L31.1592 52.7175H29.9819L32.7472 48.8418L30.0777 45.0527Z" fill="white"/>
<path d="M41.2678 45.9519V52.7177H40.2634V45.9519H37.5074V45.0527H44.0144V45.9519H41.2678Z" fill="white"/>
</svg>
