<svg width="60" height="60" viewBox="0 0 60 60" fill="none" xmlns="http://www.w3.org/2000/svg">
<path d="M46.6161 56.9031H13.4657C11.6068 56.9031 10.1 55.3962 10.1 53.5374V6.36571C10.1 4.50691 11.6068 3.00011 13.4657 3.00011H37.7983L49.9846 15.1863V53.5392C49.9836 55.3981 48.4759 56.9041 46.6171 56.9031H46.6161Z" fill="#ECEBED"/>
<path d="M49.9819 40.7592V53.5392C49.9819 55.398 48.475 56.9048 46.6162 56.9048H13.4657C11.6069 56.9048 10.1 55.398 10.1 53.5392V40.7592H49.9819Z" fill="#2BAD75"/>
<path d="M41.9049 12.9282C41.5681 12.9845 38.9523 14.1912 38.9523 14.1912L49.9819 23.4176V15.1827L41.9049 12.9282Z" fill="#E1E2E5"/>
<path d="M49.9827 15.1862H41.4563C39.435 15.1862 37.7964 13.5476 37.7964 11.5263V3.00002L49.9827 15.1862Z" fill="#C6C6C8"/>
<path d="M10.1073 40.7591H49.9819V30.5712L40.6937 21.6099L30.2861 32.2327L24.8512 27.2754L10.1073 40.7591Z" fill="#3DC188"/>
<path d="M21.2322 12.4842C23.7143 12.4842 25.7265 14.4965 25.7265 16.9786C25.7265 19.4607 23.7143 21.4728 21.2322 21.4728C18.7501 21.4728 16.7379 19.4607 16.7379 16.9786C16.7379 14.4965 18.7501 12.4842 21.2322 12.4842Z" fill="#F3D55B"/>
<path d="M21.8904 52.7467H20.8826V45.0555H21.8904V52.7467Z" fill="white"/>
<path d="M24.9056 45.0554L27.8727 50.2787L30.8398 45.0554H31.7232V52.7466H30.7164V47.0719L28.2395 51.4509H27.5131L25.0354 47.0719V52.7466H24.0276V45.0554H24.9056Z" fill="white"/>
<path d="M33.4883 48.8961C33.4142 46.7482 35.0951 44.9469 37.2431 44.8727C37.3355 44.8695 37.428 44.8696 37.5205 44.873C39.2416 44.7753 40.8135 45.8466 41.3519 47.4842H40.2569C39.8017 46.4011 38.7121 45.7236 37.5394 45.7945C35.8216 45.8412 34.4669 47.2716 34.5137 48.9895C34.5588 50.6493 35.8993 51.9812 37.5594 52.0157C39.0092 52.1017 40.2698 51.0314 40.4203 49.587H37.3578V48.7136H41.4961V49.0595C41.5283 51.1607 39.8509 52.8903 37.7497 52.9224C37.6735 52.9236 37.5973 52.9225 37.5211 52.9191C35.3734 52.9985 33.568 51.3218 33.4886 49.1741C33.4852 49.0815 33.4851 48.9888 33.4883 48.8961Z" fill="white"/>
<path d="M46.619 56.9088H13.4658C11.6069 56.9088 10.1001 55.4019 10.1001 53.543V6.3658C10.1001 4.507 11.6069 3 13.4658 3H37.7977L49.9847 15.187V53.543C49.9847 55.4019 48.4779 56.9088 46.619 56.9088Z" fill="#58C658"/>
<path d="M41.9069 12.9291C41.5703 12.9852 38.954 14.1923 38.954 14.1923L49.9848 23.4193V15.1871L41.9069 12.9291Z" fill="#56B756"/>
<path d="M49.9847 15.187H41.458C39.4365 15.187 37.7977 13.5482 37.7977 11.5267V3.00002L49.9847 15.187Z" fill="#E3E5E4"/>
<path d="M41.3811 18.631C41.3564 18.5726 41.3104 18.5277 41.256 18.4961C41.2129 18.471 41.1656 18.4526 41.1122 18.4526H31.9669V17.0375C31.9669 16.6145 31.5716 16.3027 31.1603 16.4011L19.1829 19.2652C18.8884 19.3357 18.6807 19.599 18.6807 19.9017V35.367C18.6807 35.6911 18.918 35.9664 19.2386 36.0142L31.216 37.7997C31.6115 37.8586 31.9669 37.5523 31.9669 37.1525V36.2744H41.1122C41.2733 36.2744 41.404 36.1437 41.404 35.9825V35.9762C41.404 35.9512 41.3958 35.9288 41.3898 35.9057C41.3958 35.8825 41.404 35.8603 41.404 35.8353V33.1105V33.1043V30.2386V30.2323V27.3668V27.3605V24.4948V24.4884V21.6228V21.6165V18.7509V18.7446C41.404 18.7042 41.3959 18.666 41.3811 18.631ZM34.9806 35.6843H31.9669V33.4025H34.9806V35.6843ZM34.9806 32.8123H31.9669V30.5306H34.9806V32.8123ZM34.9806 29.9405H31.9669V27.6587H34.9806V29.9405ZM34.9806 27.0685H31.9669V24.7866H34.9806V27.0685ZM34.9806 24.1965H31.9669V21.9147H34.9806V24.1965ZM34.9806 21.3246H31.9669V19.0428H34.9806V21.3246ZM40.8139 35.6843H35.5707V33.4025H40.8139V35.6843ZM40.8139 32.8123H35.5707V30.5306H40.8139V32.8123ZM40.8139 29.9405H35.5707V27.6587H40.8139V29.9405ZM40.8139 27.0685H35.5707V24.7866H40.8139V27.0685ZM40.8139 24.1965H35.5707V21.9147H40.8139V24.1965ZM40.8139 21.3246H35.5707V19.0428H40.8139V21.3246Z" fill="white"/>
<path d="M25.734 27.2455L27.9542 23.6296C28.0935 23.4027 28.0224 23.1053 27.795 22.9655C27.5675 22.8257 27.2706 22.8973 27.1309 23.1248L25.1674 26.3227L23.2037 23.1248C23.0633 22.8973 22.7671 22.8257 22.5397 22.9655C22.3122 23.1053 22.2412 23.4027 22.3804 23.6296L24.6008 27.2455L22.3804 30.8615C22.2412 31.0884 22.3122 31.3859 22.5397 31.5256C22.6185 31.5739 22.7055 31.5972 22.7915 31.5972C22.9541 31.5972 23.1122 31.515 23.2037 31.3664L25.1674 28.1684L27.1309 31.3664C27.2224 31.515 27.3806 31.5972 27.543 31.5972C27.6289 31.5972 27.7163 31.5739 27.795 31.5256C28.0224 31.3859 28.0935 31.0884 27.9542 30.8615L25.734 27.2455Z" fill="#58C658"/>
<path d="M16.7091 45.112H17.9077L19.9925 48.0931L22.0961 45.112H23.2471L20.6051 48.8187L23.3413 52.6682H22.1626L19.9736 49.5742L17.7758 52.6682H16.6149L19.3412 48.8474L16.7091 45.112Z" fill="white"/>
<path d="M25.3488 51.772H29.4996V52.6681H24.3584V45.1121H25.3488V51.772Z" fill="white"/>
<path d="M36.3757 47.1968H35.3576C35.2535 46.3948 34.5268 45.7812 33.3481 45.7812C32.1595 45.7812 31.4892 46.2719 31.4892 46.9509C31.4892 47.7341 32.1872 48.0742 33.8011 48.4132C35.6589 48.8097 36.4043 49.5265 36.4043 50.6487C36.4043 52.0079 35.0739 52.8377 33.3946 52.8377C31.631 52.8377 30.3572 51.875 30.2541 50.4138H31.2722C31.3763 51.3288 32.197 51.9791 33.461 51.9791C34.5931 51.9791 35.3951 51.4606 35.3951 50.7062C35.3951 49.8665 34.7062 49.5265 33.0645 49.1775C31.3573 48.8187 30.4899 48.206 30.4899 46.9509C30.4899 45.6969 31.7251 44.9325 33.3946 44.9325C35.0551 44.9325 36.2815 45.8763 36.3757 47.1968Z" fill="white"/>
<path d="M36.8376 45.112H38.0362L40.121 48.0931L42.2246 45.112H43.3756L40.7336 48.8187L43.4698 52.6682H42.2911L40.1021 49.5742L37.9043 52.6682H36.7434L39.4697 48.8474L36.8376 45.112Z" fill="white"/>
</svg>
