<svg width="1411" height="430" viewBox="0 0 1411 430" fill="none" xmlns="http://www.w3.org/2000/svg">
<g clip-path="url(#clip0_233_10)">
<rect width="1411" height="430" fill="url(#paint0_linear_233_10)"/>
<path d="M180.75 228L171.05 201.1H178.4L186.45 224.25H182.95L191.35 201.1H197.95L206.1 224.25H202.6L210.9 201.1H217.8L208.05 228H200.5L193.35 208.15H195.65L188.25 228H180.75ZM234.044 228.4C230.977 228.4 228.277 227.8 225.944 226.6C223.644 225.4 221.86 223.767 220.594 221.7C219.327 219.6 218.694 217.217 218.694 214.55C218.694 211.85 219.31 209.467 220.544 207.4C221.81 205.3 223.527 203.667 225.694 202.5C227.86 201.3 230.31 200.7 233.044 200.7C235.677 200.7 238.044 201.267 240.144 202.4C242.277 203.5 243.96 205.1 245.194 207.2C246.427 209.267 247.044 211.75 247.044 214.65C247.044 214.95 247.027 215.3 246.994 215.7C246.96 216.067 246.927 216.417 246.894 216.75H225.044V212.2H242.794L239.794 213.55C239.794 212.15 239.51 210.933 238.944 209.9C238.377 208.867 237.594 208.067 236.594 207.5C235.594 206.9 234.427 206.6 233.094 206.6C231.76 206.6 230.577 206.9 229.544 207.5C228.544 208.067 227.76 208.883 227.194 209.95C226.627 210.983 226.344 212.217 226.344 213.65V214.85C226.344 216.317 226.66 217.617 227.294 218.75C227.96 219.85 228.877 220.7 230.044 221.3C231.244 221.867 232.644 222.15 234.244 222.15C235.677 222.15 236.927 221.933 237.994 221.5C239.094 221.067 240.094 220.417 240.994 219.55L245.144 224.05C243.91 225.45 242.36 226.533 240.494 227.3C238.627 228.033 236.477 228.4 234.044 228.4ZM268.137 228.4C265.77 228.4 263.737 227.9 262.037 226.9C260.337 225.9 259.037 224.383 258.137 222.35C257.237 220.283 256.787 217.683 256.787 214.55C256.787 211.383 257.253 208.783 258.187 206.75C259.153 204.717 260.487 203.2 262.187 202.2C263.887 201.2 265.87 200.7 268.137 200.7C270.67 200.7 272.937 201.267 274.937 202.4C276.97 203.533 278.57 205.133 279.737 207.2C280.937 209.267 281.537 211.717 281.537 214.55C281.537 217.35 280.937 219.783 279.737 221.85C278.57 223.917 276.97 225.533 274.937 226.7C272.937 227.833 270.67 228.4 268.137 228.4ZM252.237 228V190.9H260.037V206.55L259.537 214.5L259.687 222.5V228H252.237ZM266.787 222C268.087 222 269.237 221.7 270.237 221.1C271.27 220.5 272.087 219.65 272.687 218.55C273.32 217.417 273.637 216.083 273.637 214.55C273.637 212.983 273.32 211.65 272.687 210.55C272.087 209.45 271.27 208.6 270.237 208C269.237 207.4 268.087 207.1 266.787 207.1C265.487 207.1 264.32 207.4 263.287 208C262.253 208.6 261.437 209.45 260.837 210.55C260.237 211.65 259.937 212.983 259.937 214.55C259.937 216.083 260.237 217.417 260.837 218.55C261.437 219.65 262.253 220.5 263.287 221.1C264.32 221.7 265.487 222 266.787 222ZM312.468 228.4C309.935 228.4 307.652 227.833 305.618 226.7C303.585 225.533 301.968 223.917 300.768 221.85C299.602 219.783 299.018 217.35 299.018 214.55C299.018 211.717 299.602 209.267 300.768 207.2C301.968 205.133 303.585 203.533 305.618 202.4C307.652 201.267 309.935 200.7 312.468 200.7C314.735 200.7 316.718 201.2 318.418 202.2C320.118 203.2 321.435 204.717 322.368 206.75C323.302 208.783 323.768 211.383 323.768 214.55C323.768 217.683 323.318 220.283 322.418 222.35C321.518 224.383 320.218 225.9 318.518 226.9C316.852 227.9 314.835 228.4 312.468 228.4ZM313.818 222C315.085 222 316.235 221.7 317.268 221.1C318.302 220.5 319.118 219.65 319.718 218.55C320.352 217.417 320.668 216.083 320.668 214.55C320.668 212.983 320.352 211.65 319.718 210.55C319.118 209.45 318.302 208.6 317.268 208C316.235 207.4 315.085 207.1 313.818 207.1C312.518 207.1 311.352 207.4 310.318 208C309.285 208.6 308.452 209.45 307.818 210.55C307.218 211.65 306.918 212.983 306.918 214.55C306.918 216.083 307.218 217.417 307.818 218.55C308.452 219.65 309.285 220.5 310.318 221.1C311.352 221.7 312.518 222 313.818 222ZM320.868 228V222.5L321.018 214.5L320.518 206.55V190.9H328.318V228H320.868ZM348.888 228.4C345.821 228.4 343.121 227.8 340.788 226.6C338.488 225.4 336.704 223.767 335.438 221.7C334.171 219.6 333.538 217.217 333.538 214.55C333.538 211.85 334.154 209.467 335.388 207.4C336.654 205.3 338.371 203.667 340.538 202.5C342.704 201.3 345.154 200.7 347.888 200.7C350.521 200.7 352.888 201.267 354.988 202.4C357.121 203.5 358.804 205.1 360.038 207.2C361.271 209.267 361.888 211.75 361.888 214.65C361.888 214.95 361.871 215.3 361.838 215.7C361.804 216.067 361.771 216.417 361.738 216.75H339.888V212.2H357.637L354.638 213.55C354.638 212.15 354.354 210.933 353.788 209.9C353.221 208.867 352.438 208.067 351.438 207.5C350.438 206.9 349.271 206.6 347.938 206.6C346.604 206.6 345.421 206.9 344.388 207.5C343.388 208.067 342.604 208.883 342.038 209.95C341.471 210.983 341.188 212.217 341.188 213.65V214.85C341.188 216.317 341.504 217.617 342.138 218.75C342.804 219.85 343.721 220.7 344.888 221.3C346.088 221.867 347.488 222.15 349.088 222.15C350.521 222.15 351.771 221.933 352.838 221.5C353.938 221.067 354.938 220.417 355.838 219.55L359.988 224.05C358.754 225.45 357.204 226.533 355.338 227.3C353.471 228.033 351.321 228.4 348.888 228.4ZM376.13 228.4C373.83 228.4 371.614 228.133 369.48 227.6C367.38 227.033 365.714 226.333 364.48 225.5L367.08 219.9C368.314 220.667 369.764 221.3 371.43 221.8C373.13 222.267 374.797 222.5 376.43 222.5C378.23 222.5 379.497 222.283 380.23 221.85C380.997 221.417 381.38 220.817 381.38 220.05C381.38 219.417 381.08 218.95 380.48 218.65C379.914 218.317 379.147 218.067 378.18 217.9C377.214 217.733 376.147 217.567 374.98 217.4C373.847 217.233 372.697 217.017 371.53 216.75C370.364 216.45 369.297 216.017 368.33 215.45C367.364 214.883 366.58 214.117 365.98 213.15C365.414 212.183 365.13 210.933 365.13 209.4C365.13 207.7 365.614 206.2 366.58 204.9C367.58 203.6 369.014 202.583 370.88 201.85C372.747 201.083 374.98 200.7 377.58 200.7C379.414 200.7 381.28 200.9 383.18 201.3C385.08 201.7 386.664 202.283 387.93 203.05L385.33 208.6C384.03 207.833 382.714 207.317 381.38 207.05C380.08 206.75 378.814 206.6 377.58 206.6C375.847 206.6 374.58 206.833 373.78 207.3C372.98 207.767 372.58 208.367 372.58 209.1C372.58 209.767 372.864 210.267 373.43 210.6C374.03 210.933 374.814 211.2 375.78 211.4C376.747 211.6 377.797 211.783 378.93 211.95C380.097 212.083 381.264 212.3 382.43 212.6C383.597 212.9 384.647 213.333 385.58 213.9C386.547 214.433 387.33 215.183 387.93 216.15C388.53 217.083 388.83 218.317 388.83 219.85C388.83 221.517 388.33 223 387.33 224.3C386.33 225.567 384.88 226.567 382.98 227.3C381.114 228.033 378.83 228.4 376.13 228.4ZM393.643 228V201.1H401.443V228H393.643ZM397.543 197.35C396.11 197.35 394.943 196.933 394.043 196.1C393.143 195.267 392.693 194.233 392.693 193C392.693 191.767 393.143 190.733 394.043 189.9C394.943 189.067 396.11 188.65 397.543 188.65C398.976 188.65 400.143 189.05 401.043 189.85C401.943 190.617 402.393 191.617 402.393 192.85C402.393 194.15 401.943 195.233 401.043 196.1C400.176 196.933 399.01 197.35 397.543 197.35ZM421.332 238.1C418.799 238.1 416.349 237.783 413.982 237.15C411.649 236.55 409.699 235.633 408.132 234.4L411.232 228.8C412.365 229.733 413.799 230.467 415.532 231C417.299 231.567 419.032 231.85 420.732 231.85C423.499 231.85 425.499 231.233 426.732 230C427.999 228.767 428.632 226.933 428.632 224.5V220.45L429.132 213.7L429.032 206.9V201.1H436.432V223.5C436.432 228.5 435.132 232.183 432.532 234.55C429.932 236.917 426.199 238.1 421.332 238.1ZM420.132 226.7C417.632 226.7 415.365 226.167 413.332 225.1C411.332 224 409.715 222.483 408.482 220.55C407.282 218.583 406.682 216.3 406.682 213.7C406.682 211.067 407.282 208.783 408.482 206.85C409.715 204.883 411.332 203.367 413.332 202.3C415.365 201.233 417.632 200.7 420.132 200.7C422.399 200.7 424.399 201.167 426.132 202.1C427.865 203 429.215 204.417 430.182 206.35C431.149 208.25 431.632 210.7 431.632 213.7C431.632 216.667 431.149 219.117 430.182 221.05C429.215 222.95 427.865 224.367 426.132 225.3C424.399 226.233 422.399 226.7 420.132 226.7ZM421.682 220.3C423.049 220.3 424.265 220.033 425.332 219.5C426.399 218.933 427.232 218.15 427.832 217.15C428.432 216.15 428.732 215 428.732 213.7C428.732 212.367 428.432 211.217 427.832 210.25C427.232 209.25 426.399 208.483 425.332 207.95C424.265 207.383 423.049 207.1 421.682 207.1C420.315 207.1 419.099 207.383 418.032 207.95C416.965 208.483 416.115 209.25 415.482 210.25C414.882 211.217 414.582 212.367 414.582 213.7C414.582 215 414.882 216.15 415.482 217.15C416.115 218.15 416.965 218.933 418.032 219.5C419.099 220.033 420.315 220.3 421.682 220.3ZM460.042 200.7C462.175 200.7 464.075 201.133 465.742 202C467.442 202.833 468.775 204.133 469.742 205.9C470.708 207.633 471.192 209.867 471.192 212.6V228H463.392V213.8C463.392 211.633 462.908 210.033 461.942 209C461.008 207.967 459.675 207.45 457.942 207.45C456.708 207.45 455.592 207.717 454.592 208.25C453.625 208.75 452.858 209.533 452.292 210.6C451.758 211.667 451.492 213.033 451.492 214.7V228H443.692V201.1H451.142V208.55L449.742 206.3C450.708 204.5 452.092 203.117 453.892 202.15C455.692 201.183 457.742 200.7 460.042 200.7ZM491.807 228.4C488.741 228.4 486.041 227.8 483.707 226.6C481.407 225.4 479.624 223.767 478.357 221.7C477.091 219.6 476.457 217.217 476.457 214.55C476.457 211.85 477.074 209.467 478.307 207.4C479.574 205.3 481.291 203.667 483.457 202.5C485.624 201.3 488.074 200.7 490.807 200.7C493.441 200.7 495.807 201.267 497.907 202.4C500.041 203.5 501.724 205.1 502.957 207.2C504.191 209.267 504.807 211.75 504.807 214.65C504.807 214.95 504.791 215.3 504.757 215.7C504.724 216.067 504.691 216.417 504.657 216.75H482.807V212.2H500.557L497.557 213.55C497.557 212.15 497.274 210.933 496.707 209.9C496.141 208.867 495.357 208.067 494.357 207.5C493.357 206.9 492.191 206.6 490.857 206.6C489.524 206.6 488.341 206.9 487.307 207.5C486.307 208.067 485.524 208.883 484.957 209.95C484.391 210.983 484.107 212.217 484.107 213.65V214.85C484.107 216.317 484.424 217.617 485.057 218.75C485.724 219.85 486.641 220.7 487.807 221.3C489.007 221.867 490.407 222.15 492.007 222.15C493.441 222.15 494.691 221.933 495.757 221.5C496.857 221.067 497.857 220.417 498.757 219.55L502.907 224.05C501.674 225.45 500.124 226.533 498.257 227.3C496.391 228.033 494.241 228.4 491.807 228.4ZM510 228V201.1H517.45V208.7L516.4 206.5C517.2 204.6 518.484 203.167 520.25 202.2C522.017 201.2 524.167 200.7 526.7 200.7V207.9C526.367 207.867 526.067 207.85 525.8 207.85C525.534 207.817 525.25 207.8 524.95 207.8C522.817 207.8 521.084 208.417 519.75 209.65C518.45 210.85 517.8 212.733 517.8 215.3V228H510ZM540.444 233L556.944 185.9H563.894L547.394 233H540.444ZM180.75 289L171.05 262.1H178.4L186.45 285.25H182.95L191.35 262.1H197.95L206.1 285.25H202.6L210.9 262.1H217.8L208.05 289H200.5L193.35 269.15H195.65L188.25 289H180.75ZM234.044 289.4C230.977 289.4 228.277 288.8 225.944 287.6C223.644 286.4 221.86 284.767 220.594 282.7C219.327 280.6 218.694 278.217 218.694 275.55C218.694 272.85 219.31 270.467 220.544 268.4C221.81 266.3 223.527 264.667 225.694 263.5C227.86 262.3 230.31 261.7 233.044 261.7C235.677 261.7 238.044 262.267 240.144 263.4C242.277 264.5 243.96 266.1 245.194 268.2C246.427 270.267 247.044 272.75 247.044 275.65C247.044 275.95 247.027 276.3 246.994 276.7C246.96 277.067 246.927 277.417 246.894 277.75H225.044V273.2H242.794L239.794 274.55C239.794 273.15 239.51 271.933 238.944 270.9C238.377 269.867 237.594 269.067 236.594 268.5C235.594 267.9 234.427 267.6 233.094 267.6C231.76 267.6 230.577 267.9 229.544 268.5C228.544 269.067 227.76 269.883 227.194 270.95C226.627 271.983 226.344 273.217 226.344 274.65V275.85C226.344 277.317 226.66 278.617 227.294 279.75C227.96 280.85 228.877 281.7 230.044 282.3C231.244 282.867 232.644 283.15 234.244 283.15C235.677 283.15 236.927 282.933 237.994 282.5C239.094 282.067 240.094 281.417 240.994 280.55L245.144 285.05C243.91 286.45 242.36 287.533 240.494 288.3C238.627 289.033 236.477 289.4 234.044 289.4ZM268.137 289.4C265.77 289.4 263.737 288.9 262.037 287.9C260.337 286.9 259.037 285.383 258.137 283.35C257.237 281.283 256.787 278.683 256.787 275.55C256.787 272.383 257.253 269.783 258.187 267.75C259.153 265.717 260.487 264.2 262.187 263.2C263.887 262.2 265.87 261.7 268.137 261.7C270.67 261.7 272.937 262.267 274.937 263.4C276.97 264.533 278.57 266.133 279.737 268.2C280.937 270.267 281.537 272.717 281.537 275.55C281.537 278.35 280.937 280.783 279.737 282.85C278.57 284.917 276.97 286.533 274.937 287.7C272.937 288.833 270.67 289.4 268.137 289.4ZM252.237 289V251.9H260.037V267.55L259.537 275.5L259.687 283.5V289H252.237ZM266.787 283C268.087 283 269.237 282.7 270.237 282.1C271.27 281.5 272.087 280.65 272.687 279.55C273.32 278.417 273.637 277.083 273.637 275.55C273.637 273.983 273.32 272.65 272.687 271.55C272.087 270.45 271.27 269.6 270.237 269C269.237 268.4 268.087 268.1 266.787 268.1C265.487 268.1 264.32 268.4 263.287 269C262.253 269.6 261.437 270.45 260.837 271.55C260.237 272.65 259.937 273.983 259.937 275.55C259.937 277.083 260.237 278.417 260.837 279.55C261.437 280.65 262.253 281.5 263.287 282.1C264.32 282.7 265.487 283 266.787 283ZM326.629 289.4C324.095 289.4 321.812 288.833 319.779 287.7C317.745 286.533 316.129 284.917 314.929 282.85C313.762 280.783 313.179 278.35 313.179 275.55C313.179 272.717 313.762 270.267 314.929 268.2C316.129 266.133 317.745 264.533 319.779 263.4C321.812 262.267 324.095 261.7 326.629 261.7C328.895 261.7 330.879 262.2 332.579 263.2C334.279 264.2 335.595 265.717 336.529 267.75C337.462 269.783 337.929 272.383 337.929 275.55C337.929 278.683 337.479 281.283 336.579 283.35C335.679 285.383 334.379 286.9 332.679 287.9C331.012 288.9 328.995 289.4 326.629 289.4ZM327.979 283C329.245 283 330.395 282.7 331.429 282.1C332.462 281.5 333.279 280.65 333.879 279.55C334.512 278.417 334.829 277.083 334.829 275.55C334.829 273.983 334.512 272.65 333.879 271.55C333.279 270.45 332.462 269.6 331.429 269C330.395 268.4 329.245 268.1 327.979 268.1C326.679 268.1 325.512 268.4 324.479 269C323.445 269.6 322.612 270.45 321.979 271.55C321.379 272.65 321.079 273.983 321.079 275.55C321.079 277.083 321.379 278.417 321.979 279.55C322.612 280.65 323.445 281.5 324.479 282.1C325.512 282.7 326.679 283 327.979 283ZM335.029 289V283.5L335.179 275.5L334.679 267.55V251.9H342.479V289H335.029ZM363.048 289.4C359.981 289.4 357.281 288.8 354.948 287.6C352.648 286.4 350.864 284.767 349.598 282.7C348.331 280.6 347.698 278.217 347.698 275.55C347.698 272.85 348.314 270.467 349.548 268.4C350.814 266.3 352.531 264.667 354.698 263.5C356.864 262.3 359.314 261.7 362.048 261.7C364.681 261.7 367.048 262.267 369.148 263.4C371.281 264.5 372.964 266.1 374.198 268.2C375.431 270.267 376.048 272.75 376.048 275.65C376.048 275.95 376.031 276.3 375.998 276.7C375.964 277.067 375.931 277.417 375.898 277.75H354.048V273.2H371.798L368.798 274.55C368.798 273.15 368.514 271.933 367.948 270.9C367.381 269.867 366.598 269.067 365.598 268.5C364.598 267.9 363.431 267.6 362.098 267.6C360.764 267.6 359.581 267.9 358.548 268.5C357.548 269.067 356.764 269.883 356.198 270.95C355.631 271.983 355.348 273.217 355.348 274.65V275.85C355.348 277.317 355.664 278.617 356.298 279.75C356.964 280.85 357.881 281.7 359.048 282.3C360.248 282.867 361.648 283.15 363.248 283.15C364.681 283.15 365.931 282.933 366.998 282.5C368.098 282.067 369.098 281.417 369.998 280.55L374.148 285.05C372.914 286.45 371.364 287.533 369.498 288.3C367.631 289.033 365.481 289.4 363.048 289.4ZM388.052 289L376.752 262.1H384.802L394.202 285.25H390.202L399.952 262.1H407.452L396.102 289H388.052ZM423.253 289.4C420.186 289.4 417.486 288.8 415.153 287.6C412.853 286.4 411.069 284.767 409.803 282.7C408.536 280.6 407.903 278.217 407.903 275.55C407.903 272.85 408.519 270.467 409.753 268.4C411.019 266.3 412.736 264.667 414.903 263.5C417.069 262.3 419.519 261.7 422.253 261.7C424.886 261.7 427.253 262.267 429.353 263.4C431.486 264.5 433.169 266.1 434.403 268.2C435.636 270.267 436.253 272.75 436.253 275.65C436.253 275.95 436.236 276.3 436.203 276.7C436.169 277.067 436.136 277.417 436.103 277.75H414.253V273.2H432.003L429.003 274.55C429.003 273.15 428.719 271.933 428.153 270.9C427.586 269.867 426.803 269.067 425.803 268.5C424.803 267.9 423.636 267.6 422.303 267.6C420.969 267.6 419.786 267.9 418.753 268.5C417.753 269.067 416.969 269.883 416.403 270.95C415.836 271.983 415.553 273.217 415.553 274.65V275.85C415.553 277.317 415.869 278.617 416.503 279.75C417.169 280.85 418.086 281.7 419.253 282.3C420.453 282.867 421.853 283.15 423.453 283.15C424.886 283.15 426.136 282.933 427.203 282.5C428.303 282.067 429.303 281.417 430.203 280.55L434.353 285.05C433.119 286.45 431.569 287.533 429.703 288.3C427.836 289.033 425.686 289.4 423.253 289.4ZM441.446 289V251.9H449.246V289H441.446ZM469.285 289.4C466.418 289.4 463.868 288.8 461.635 287.6C459.435 286.4 457.685 284.767 456.385 282.7C455.118 280.6 454.485 278.217 454.485 275.55C454.485 272.85 455.118 270.467 456.385 268.4C457.685 266.3 459.435 264.667 461.635 263.5C463.868 262.3 466.418 261.7 469.285 261.7C472.118 261.7 474.651 262.3 476.885 263.5C479.118 264.667 480.868 266.283 482.135 268.35C483.401 270.417 484.035 272.817 484.035 275.55C484.035 278.217 483.401 280.6 482.135 282.7C480.868 284.767 479.118 286.4 476.885 287.6C474.651 288.8 472.118 289.4 469.285 289.4ZM469.285 283C470.585 283 471.751 282.7 472.785 282.1C473.818 281.5 474.635 280.65 475.235 279.55C475.835 278.417 476.135 277.083 476.135 275.55C476.135 273.983 475.835 272.65 475.235 271.55C474.635 270.45 473.818 269.6 472.785 269C471.751 268.4 470.585 268.1 469.285 268.1C467.985 268.1 466.818 268.4 465.785 269C464.751 269.6 463.918 270.45 463.285 271.55C462.685 272.65 462.385 273.983 462.385 275.55C462.385 277.083 462.685 278.417 463.285 279.55C463.918 280.65 464.751 281.5 465.785 282.1C466.818 282.7 467.985 283 469.285 283ZM505.148 289.4C502.882 289.4 500.898 288.9 499.198 287.9C497.498 286.9 496.165 285.383 495.198 283.35C494.265 281.283 493.798 278.683 493.798 275.55C493.798 272.383 494.248 269.783 495.148 267.75C496.048 265.717 497.348 264.2 499.048 263.2C500.748 262.2 502.782 261.7 505.148 261.7C507.682 261.7 509.948 262.283 511.948 263.45C513.982 264.583 515.582 266.183 516.748 268.25C517.948 270.317 518.548 272.75 518.548 275.55C518.548 278.383 517.948 280.833 516.748 282.9C515.582 284.967 513.982 286.567 511.948 287.7C509.948 288.833 507.682 289.4 505.148 289.4ZM489.248 298.7V262.1H496.698V267.6L496.548 275.6L497.048 283.55V298.7H489.248ZM503.798 283C505.098 283 506.248 282.7 507.248 282.1C508.282 281.5 509.098 280.65 509.698 279.55C510.332 278.417 510.648 277.083 510.648 275.55C510.648 273.983 510.332 272.65 509.698 271.55C509.098 270.45 508.282 269.6 507.248 269C506.248 268.4 505.098 268.1 503.798 268.1C502.498 268.1 501.332 268.4 500.298 269C499.265 269.6 498.448 270.45 497.848 271.55C497.248 272.65 496.948 273.983 496.948 275.55C496.948 277.083 497.248 278.417 497.848 279.55C498.448 280.65 499.265 281.5 500.298 282.1C501.332 282.7 502.498 283 503.798 283ZM537.12 289.4C534.053 289.4 531.353 288.8 529.02 287.6C526.72 286.4 524.937 284.767 523.67 282.7C522.403 280.6 521.77 278.217 521.77 275.55C521.77 272.85 522.387 270.467 523.62 268.4C524.887 266.3 526.603 264.667 528.77 263.5C530.937 262.3 533.387 261.7 536.12 261.7C538.753 261.7 541.12 262.267 543.22 263.4C545.353 264.5 547.037 266.1 548.27 268.2C549.503 270.267 550.12 272.75 550.12 275.65C550.12 275.95 550.103 276.3 550.07 276.7C550.037 277.067 550.003 277.417 549.97 277.75H528.12V273.2H545.87L542.87 274.55C542.87 273.15 542.587 271.933 542.02 270.9C541.453 269.867 540.67 269.067 539.67 268.5C538.67 267.9 537.503 267.6 536.17 267.6C534.837 267.6 533.653 267.9 532.62 268.5C531.62 269.067 530.837 269.883 530.27 270.95C529.703 271.983 529.42 273.217 529.42 274.65V275.85C529.42 277.317 529.737 278.617 530.37 279.75C531.037 280.85 531.953 281.7 533.12 282.3C534.32 282.867 535.72 283.15 537.32 283.15C538.753 283.15 540.003 282.933 541.07 282.5C542.17 282.067 543.17 281.417 544.07 280.55L548.22 285.05C546.987 286.45 545.437 287.533 543.57 288.3C541.703 289.033 539.553 289.4 537.12 289.4ZM555.313 289V262.1H562.763V269.7L561.713 267.5C562.513 265.6 563.796 264.167 565.563 263.2C567.33 262.2 569.48 261.7 572.013 261.7V268.9C571.68 268.867 571.38 268.85 571.113 268.85C570.846 268.817 570.563 268.8 570.263 268.8C568.13 268.8 566.396 269.417 565.063 270.65C563.763 271.85 563.113 273.733 563.113 276.3V289H555.313Z" fill="white"/>
<path d="M174.675 163V138.5H185C187.613 138.5 189.912 139.013 191.895 140.04C193.902 141.067 195.453 142.502 196.55 144.345C197.67 146.188 198.23 148.323 198.23 150.75C198.23 153.177 197.67 155.312 196.55 157.155C195.453 158.998 193.902 160.433 191.895 161.46C189.912 162.487 187.613 163 185 163H174.675ZM178.175 159.955H184.79C186.82 159.955 188.57 159.57 190.04 158.8C191.533 158.03 192.688 156.957 193.505 155.58C194.322 154.18 194.73 152.57 194.73 150.75C194.73 148.907 194.322 147.297 193.505 145.92C192.688 144.543 191.533 143.47 190.04 142.7C188.57 141.93 186.82 141.545 184.79 141.545H178.175V159.955ZM214.616 163V159.08L214.441 158.345V151.66C214.441 150.237 214.021 149.14 213.181 148.37C212.364 147.577 211.128 147.18 209.471 147.18C208.374 147.18 207.301 147.367 206.251 147.74C205.201 148.09 204.314 148.568 203.591 149.175L202.191 146.655C203.148 145.885 204.291 145.302 205.621 144.905C206.974 144.485 208.386 144.275 209.856 144.275C212.399 144.275 214.359 144.893 215.736 146.13C217.113 147.367 217.801 149.257 217.801 151.8V163H214.616ZM208.526 163.21C207.149 163.21 205.936 162.977 204.886 162.51C203.859 162.043 203.066 161.402 202.506 160.585C201.946 159.745 201.666 158.8 201.666 157.75C201.666 156.747 201.899 155.837 202.366 155.02C202.856 154.203 203.638 153.55 204.711 153.06C205.808 152.57 207.278 152.325 209.121 152.325H215.001V154.74H209.261C207.581 154.74 206.449 155.02 205.866 155.58C205.283 156.14 204.991 156.817 204.991 157.61C204.991 158.52 205.353 159.255 206.076 159.815C206.799 160.352 207.803 160.62 209.086 160.62C210.346 160.62 211.443 160.34 212.376 159.78C213.333 159.22 214.021 158.403 214.441 157.33L215.106 159.64C214.663 160.737 213.881 161.612 212.761 162.265C211.641 162.895 210.229 163.21 208.526 163.21ZM224.019 163V144.45H227.239V149.49L226.924 148.23C227.437 146.947 228.301 145.967 229.514 145.29C230.727 144.613 232.221 144.275 233.994 144.275V147.53C233.854 147.507 233.714 147.495 233.574 147.495C233.457 147.495 233.341 147.495 233.224 147.495C231.427 147.495 230.004 148.032 228.954 149.105C227.904 150.178 227.379 151.73 227.379 153.76V163H224.019ZM247.97 163.21C246.43 163.21 245.019 162.86 243.735 162.16C242.475 161.437 241.46 160.375 240.69 158.975C239.944 157.575 239.57 155.825 239.57 153.725C239.57 151.625 239.932 149.875 240.655 148.475C241.402 147.075 242.405 146.025 243.665 145.325C244.949 144.625 246.384 144.275 247.97 144.275C249.79 144.275 251.4 144.672 252.8 145.465C254.2 146.258 255.309 147.367 256.125 148.79C256.942 150.19 257.35 151.835 257.35 153.725C257.35 155.615 256.942 157.272 256.125 158.695C255.309 160.118 254.2 161.227 252.8 162.02C251.4 162.813 249.79 163.21 247.97 163.21ZM238.135 169.79V144.45H241.355V149.455L241.145 153.76L241.495 158.065V169.79H238.135ZM247.69 160.27C248.88 160.27 249.942 160.002 250.875 159.465C251.832 158.928 252.579 158.17 253.115 157.19C253.675 156.187 253.955 155.032 253.955 153.725C253.955 152.395 253.675 151.252 253.115 150.295C252.579 149.315 251.832 148.557 250.875 148.02C249.942 147.483 248.88 147.215 247.69 147.215C246.524 147.215 245.462 147.483 244.505 148.02C243.572 148.557 242.825 149.315 242.265 150.295C241.729 151.252 241.46 152.395 241.46 153.725C241.46 155.032 241.729 156.187 242.265 157.19C242.825 158.17 243.572 158.928 244.505 159.465C245.462 160.002 246.524 160.27 247.69 160.27ZM273.337 163V159.08L273.162 158.345V151.66C273.162 150.237 272.742 149.14 271.902 148.37C271.085 147.577 269.848 147.18 268.192 147.18C267.095 147.18 266.022 147.367 264.972 147.74C263.922 148.09 263.035 148.568 262.312 149.175L260.912 146.655C261.868 145.885 263.012 145.302 264.342 144.905C265.695 144.485 267.107 144.275 268.577 144.275C271.12 144.275 273.08 144.893 274.457 146.13C275.833 147.367 276.522 149.257 276.522 151.8V163H273.337ZM267.247 163.21C265.87 163.21 264.657 162.977 263.607 162.51C262.58 162.043 261.787 161.402 261.227 160.585C260.667 159.745 260.387 158.8 260.387 157.75C260.387 156.747 260.62 155.837 261.087 155.02C261.577 154.203 262.358 153.55 263.432 153.06C264.528 152.57 265.998 152.325 267.842 152.325H273.722V154.74H267.982C266.302 154.74 265.17 155.02 264.587 155.58C264.003 156.14 263.712 156.817 263.712 157.61C263.712 158.52 264.073 159.255 264.797 159.815C265.52 160.352 266.523 160.62 267.807 160.62C269.067 160.62 270.163 160.34 271.097 159.78C272.053 159.22 272.742 158.403 273.162 157.33L273.827 159.64C273.383 160.737 272.602 161.612 271.482 162.265C270.362 162.895 268.95 163.21 267.247 163.21ZM292.645 144.275C294.161 144.275 295.491 144.567 296.635 145.15C297.801 145.733 298.711 146.62 299.365 147.81C300.018 149 300.345 150.505 300.345 152.325V163H296.985V152.71C296.985 150.913 296.541 149.56 295.655 148.65C294.791 147.74 293.566 147.285 291.98 147.285C290.79 147.285 289.751 147.518 288.865 147.985C287.978 148.452 287.29 149.14 286.8 150.05C286.333 150.96 286.1 152.092 286.1 153.445V163H282.74V144.45H285.96V149.455L285.435 148.125C286.041 146.912 286.975 145.967 288.235 145.29C289.495 144.613 290.965 144.275 292.645 144.275ZM316.452 163V138.5H327.442C330.266 138.5 332.436 139.072 333.952 140.215C335.469 141.335 336.227 142.875 336.227 144.835C336.227 146.165 335.924 147.285 335.317 148.195C334.734 149.105 333.941 149.805 332.937 150.295C331.934 150.785 330.849 151.03 329.682 151.03L330.312 149.98C331.712 149.98 332.949 150.225 334.022 150.715C335.096 151.205 335.947 151.928 336.577 152.885C337.207 153.818 337.522 154.985 337.522 156.385C337.522 158.485 336.729 160.118 335.142 161.285C333.579 162.428 331.246 163 328.142 163H316.452ZM319.952 160.165H328.002C329.939 160.165 331.421 159.838 332.447 159.185C333.474 158.532 333.987 157.505 333.987 156.105C333.987 154.682 333.474 153.643 332.447 152.99C331.421 152.337 329.939 152.01 328.002 152.01H319.637V149.175H327.127C328.901 149.175 330.277 148.848 331.257 148.195C332.237 147.542 332.727 146.562 332.727 145.255C332.727 143.948 332.237 142.968 331.257 142.315C330.277 141.662 328.901 141.335 327.127 141.335H319.952V160.165ZM353.967 163V159.08L353.792 158.345V151.66C353.792 150.237 353.372 149.14 352.532 148.37C351.715 147.577 350.478 147.18 348.822 147.18C347.725 147.18 346.652 147.367 345.602 147.74C344.552 148.09 343.665 148.568 342.942 149.175L341.542 146.655C342.498 145.885 343.642 145.302 344.972 144.905C346.325 144.485 347.737 144.275 349.207 144.275C351.75 144.275 353.71 144.893 355.087 146.13C356.463 147.367 357.152 149.257 357.152 151.8V163H353.967ZM347.877 163.21C346.5 163.21 345.287 162.977 344.237 162.51C343.21 162.043 342.417 161.402 341.857 160.585C341.297 159.745 341.017 158.8 341.017 157.75C341.017 156.747 341.25 155.837 341.717 155.02C342.207 154.203 342.988 153.55 344.062 153.06C345.158 152.57 346.628 152.325 348.472 152.325H354.352V154.74H348.612C346.932 154.74 345.8 155.02 345.217 155.58C344.633 156.14 344.342 156.817 344.342 157.61C344.342 158.52 344.703 159.255 345.427 159.815C346.15 160.352 347.153 160.62 348.437 160.62C349.697 160.62 350.793 160.34 351.727 159.78C352.683 159.22 353.372 158.403 353.792 157.33L354.457 159.64C354.013 160.737 353.232 161.612 352.112 162.265C350.992 162.895 349.58 163.21 347.877 163.21ZM373.275 144.275C374.791 144.275 376.121 144.567 377.265 145.15C378.431 145.733 379.341 146.62 379.995 147.81C380.648 149 380.975 150.505 380.975 152.325V163H377.615V152.71C377.615 150.913 377.171 149.56 376.285 148.65C375.421 147.74 374.196 147.285 372.61 147.285C371.42 147.285 370.381 147.518 369.495 147.985C368.608 148.452 367.92 149.14 367.43 150.05C366.963 150.96 366.73 152.092 366.73 153.445V163H363.37V137.03H366.73V149.455L366.065 148.125C366.671 146.912 367.605 145.967 368.865 145.29C370.125 144.613 371.595 144.275 373.275 144.275ZM398.708 163V159.08L398.533 158.345V151.66C398.533 150.237 398.113 149.14 397.273 148.37C396.456 147.577 395.219 147.18 393.563 147.18C392.466 147.18 391.393 147.367 390.343 147.74C389.293 148.09 388.406 148.568 387.683 149.175L386.283 146.655C387.239 145.885 388.383 145.302 389.713 144.905C391.066 144.485 392.478 144.275 393.948 144.275C396.491 144.275 398.451 144.893 399.828 146.13C401.204 147.367 401.893 149.257 401.893 151.8V163H398.708ZM392.618 163.21C391.241 163.21 390.028 162.977 388.978 162.51C387.951 162.043 387.158 161.402 386.598 160.585C386.038 159.745 385.758 158.8 385.758 157.75C385.758 156.747 385.991 155.837 386.458 155.02C386.948 154.203 387.729 153.55 388.803 153.06C389.899 152.57 391.369 152.325 393.213 152.325H399.093V154.74H393.353C391.673 154.74 390.541 155.02 389.958 155.58C389.374 156.14 389.083 156.817 389.083 157.61C389.083 158.52 389.444 159.255 390.168 159.815C390.891 160.352 391.894 160.62 393.178 160.62C394.438 160.62 395.534 160.34 396.468 159.78C397.424 159.22 398.113 158.403 398.533 157.33L399.198 159.64C398.754 160.737 397.973 161.612 396.853 162.265C395.733 162.895 394.321 163.21 392.618 163.21ZM415.776 163.21C413.979 163.21 412.369 162.813 410.946 162.02C409.546 161.227 408.437 160.118 407.621 158.695C406.804 157.272 406.396 155.615 406.396 153.725C406.396 151.835 406.804 150.19 407.621 148.79C408.437 147.367 409.546 146.258 410.946 145.465C412.369 144.672 413.979 144.275 415.776 144.275C417.339 144.275 418.751 144.625 420.011 145.325C421.271 146.025 422.274 147.075 423.021 148.475C423.791 149.875 424.176 151.625 424.176 153.725C424.176 155.825 423.802 157.575 423.056 158.975C422.332 160.375 421.341 161.437 420.081 162.16C418.821 162.86 417.386 163.21 415.776 163.21ZM416.056 160.27C417.222 160.27 418.272 160.002 419.206 159.465C420.162 158.928 420.909 158.17 421.446 157.19C422.006 156.187 422.286 155.032 422.286 153.725C422.286 152.395 422.006 151.252 421.446 150.295C420.909 149.315 420.162 148.557 419.206 148.02C418.272 147.483 417.222 147.215 416.056 147.215C414.866 147.215 413.804 147.483 412.871 148.02C411.937 148.557 411.191 149.315 410.631 150.295C410.071 151.252 409.791 152.395 409.791 153.725C409.791 155.032 410.071 156.187 410.631 157.19C411.191 158.17 411.937 158.928 412.871 159.465C413.804 160.002 414.866 160.27 416.056 160.27ZM422.391 163V157.995L422.601 153.69L422.251 149.385V137.03H425.611V163H422.391ZM439.773 163.21C438.187 163.21 436.787 162.918 435.573 162.335C434.383 161.752 433.45 160.865 432.773 159.675C432.12 158.462 431.793 156.945 431.793 155.125V144.45H435.153V154.74C435.153 156.56 435.585 157.925 436.448 158.835C437.335 159.745 438.572 160.2 440.158 160.2C441.325 160.2 442.34 159.967 443.203 159.5C444.067 159.01 444.732 158.31 445.198 157.4C445.665 156.467 445.898 155.347 445.898 154.04V144.45H449.258V163H446.073V157.995L446.598 159.325C445.992 160.562 445.082 161.518 443.868 162.195C442.655 162.872 441.29 163.21 439.773 163.21ZM455.655 163V144.45H458.875V149.49L458.56 148.23C459.073 146.947 459.936 145.967 461.15 145.29C462.363 144.613 463.856 144.275 465.63 144.275V147.53C465.49 147.507 465.35 147.495 465.21 147.495C465.093 147.495 464.976 147.495 464.86 147.495C463.063 147.495 461.64 148.032 460.59 149.105C459.54 150.178 459.015 151.73 459.015 153.76V163H455.655Z" fill="white"/>
<ellipse cx="123.08" cy="-2.94599" rx="3.10183" ry="3.099" transform="rotate(21.0645 123.08 -2.94599)" fill="white"/>
<ellipse cx="101.437" cy="-1.98383" rx="3.10183" ry="3.099" transform="rotate(21.0645 101.437 -1.98383)" fill="white"/>
<ellipse cx="110.699" cy="1.58379" rx="3.10183" ry="3.099" transform="rotate(21.0645 110.699 1.58379)" fill="white"/>
<ellipse cx="119.962" cy="5.1513" rx="3.10183" ry="3.099" transform="rotate(21.0645 119.962 5.1513)" fill="white"/>
<ellipse cx="79.7932" cy="-1.02131" rx="3.10183" ry="3.099" transform="rotate(21.0645 79.7932 -1.02131)" fill="white"/>
<ellipse cx="89.0559" cy="2.5462" rx="3.10183" ry="3.099" transform="rotate(21.0645 89.0559 2.5462)" fill="white"/>
<ellipse cx="98.3183" cy="6.1137" rx="3.10183" ry="3.099" transform="rotate(21.0645 98.3183 6.1137)" fill="white"/>
<ellipse cx="107.581" cy="9.68133" rx="3.10183" ry="3.099" transform="rotate(21.0645 107.581 9.68133)" fill="white"/>
<ellipse cx="116.843" cy="13.2488" rx="3.10183" ry="3.099" transform="rotate(21.0645 116.843 13.2488)" fill="white"/>
<ellipse cx="48.8869" cy="-3.62666" rx="3.10183" ry="3.099" transform="rotate(21.0645 48.8869 -3.62666)" fill="white"/>
<ellipse cx="58.1496" cy="-0.0591514" rx="3.10183" ry="3.099" transform="rotate(21.0645 58.1496 -0.0591514)" fill="white"/>
<ellipse cx="67.4121" cy="3.50835" rx="3.10183" ry="3.099" transform="rotate(21.0645 67.4121 3.50835)" fill="white"/>
<ellipse cx="76.6748" cy="7.07598" rx="3.10183" ry="3.099" transform="rotate(21.0645 76.6748 7.07598)" fill="white"/>
<ellipse cx="85.9372" cy="10.6435" rx="3.10183" ry="3.099" transform="rotate(21.0645 85.9372 10.6435)" fill="white"/>
<ellipse cx="95.1999" cy="14.211" rx="3.10183" ry="3.099" transform="rotate(21.0645 95.1999 14.211)" fill="white"/>
<ellipse cx="104.462" cy="17.7786" rx="3.10183" ry="3.099" transform="rotate(21.0645 104.462 17.7786)" fill="white"/>
<ellipse cx="113.725" cy="21.3461" rx="3.10183" ry="3.099" transform="rotate(21.0645 113.725 21.3461)" fill="white"/>
<ellipse cx="27.2431" cy="-2.66462" rx="3.10183" ry="3.099" transform="rotate(21.0645 27.2431 -2.66462)" fill="white"/>
<ellipse cx="36.5058" cy="0.902885" rx="3.10183" ry="3.099" transform="rotate(21.0645 36.5058 0.902885)" fill="white"/>
<ellipse cx="45.7683" cy="4.47051" rx="3.10183" ry="3.099" transform="rotate(21.0645 45.7683 4.47051)" fill="white"/>
<ellipse cx="55.031" cy="8.03802" rx="3.10183" ry="3.099" transform="rotate(21.0645 55.031 8.03802)" fill="white"/>
<ellipse cx="64.2934" cy="11.6055" rx="3.10183" ry="3.099" transform="rotate(21.0645 64.2934 11.6055)" fill="white"/>
<ellipse cx="73.5561" cy="15.1731" rx="3.10183" ry="3.099" transform="rotate(21.0645 73.5561 15.1731)" fill="white"/>
<ellipse cx="82.8186" cy="18.7407" rx="3.10183" ry="3.099" transform="rotate(21.0645 82.8186 18.7407)" fill="white"/>
<ellipse cx="92.0813" cy="22.3082" rx="3.10183" ry="3.099" transform="rotate(21.0645 92.0813 22.3082)" fill="white"/>
<ellipse cx="101.344" cy="25.8758" rx="3.10183" ry="3.099" transform="rotate(21.0645 101.344 25.8758)" fill="white"/>
<ellipse cx="110.606" cy="29.4433" rx="3.10183" ry="3.099" transform="rotate(21.0645 110.606 29.4433)" fill="white"/>
<ellipse cx="6.17793" cy="-1.47956" rx="3.10183" ry="3.099" transform="rotate(21.0645 6.17793 -1.47956)" fill="white"/>
<ellipse cx="15.4404" cy="2.08794" rx="3.10183" ry="3.099" transform="rotate(21.0645 15.4404 2.08794)" fill="white"/>
<ellipse cx="3.05928" cy="6.61797" rx="3.10183" ry="3.099" transform="rotate(21.0645 3.05928 6.61797)" fill="white"/>
<ellipse cx="12.3217" cy="10.1855" rx="3.10183" ry="3.099" transform="rotate(21.0645 12.3217 10.1855)" fill="white"/>
<ellipse cx="-0.0596183" cy="14.7154" rx="3.10183" ry="3.099" transform="rotate(21.0645 -0.0596183 14.7154)" fill="white"/>
<ellipse cx="9.20283" cy="18.2829" rx="3.10183" ry="3.099" transform="rotate(21.0645 9.20283 18.2829)" fill="white"/>
<ellipse cx="-3.17876" cy="22.8126" rx="3.10183" ry="3.099" transform="rotate(21.0645 -3.17876 22.8126)" fill="white"/>
<ellipse cx="6.08369" cy="26.3801" rx="3.10183" ry="3.099" transform="rotate(21.0645 6.08369 26.3801)" fill="white"/>
<ellipse cx="2.96528" cy="34.4773" rx="3.10183" ry="3.099" transform="rotate(21.0645 2.96528 34.4773)" fill="white"/>
<ellipse cx="-0.153368" cy="42.575" rx="3.10183" ry="3.099" transform="rotate(21.0645 -0.153368 42.575)" fill="white"/>
<ellipse cx="-3.27251" cy="50.6722" rx="3.10183" ry="3.099" transform="rotate(21.0645 -3.27251 50.6722)" fill="white"/>
<ellipse cx="24.1242" cy="5.43279" rx="3.10183" ry="3.099" transform="rotate(21.0645 24.1242 5.43279)" fill="white"/>
<ellipse cx="33.3869" cy="9.0003" rx="3.10183" ry="3.099" transform="rotate(21.0645 33.3869 9.0003)" fill="white"/>
<ellipse cx="42.6494" cy="12.5679" rx="3.10183" ry="3.099" transform="rotate(21.0645 42.6494 12.5679)" fill="white"/>
<ellipse cx="51.9121" cy="16.1354" rx="3.10183" ry="3.099" transform="rotate(21.0645 51.9121 16.1354)" fill="white"/>
<ellipse cx="61.1745" cy="19.7029" rx="3.10183" ry="3.099" transform="rotate(21.0645 61.1745 19.7029)" fill="white"/>
<ellipse cx="70.4372" cy="23.2706" rx="3.10183" ry="3.099" transform="rotate(21.0645 70.4372 23.2706)" fill="white"/>
<ellipse cx="79.6997" cy="26.8381" rx="3.10183" ry="3.099" transform="rotate(21.0645 79.6997 26.8381)" fill="white"/>
<ellipse cx="88.9624" cy="30.4056" rx="3.10183" ry="3.099" transform="rotate(21.0645 88.9624 30.4056)" fill="white"/>
<ellipse cx="98.2248" cy="33.9732" rx="3.10183" ry="3.099" transform="rotate(21.0645 98.2248 33.9732)" fill="white"/>
<ellipse cx="107.487" cy="37.5407" rx="3.10183" ry="3.099" transform="rotate(21.0645 107.487 37.5407)" fill="white"/>
<ellipse cx="21.0056" cy="13.5303" rx="3.10183" ry="3.099" transform="rotate(21.0645 21.0056 13.5303)" fill="white"/>
<ellipse cx="30.2683" cy="17.0978" rx="3.10183" ry="3.099" transform="rotate(21.0645 30.2683 17.0978)" fill="white"/>
<ellipse cx="39.5307" cy="20.6653" rx="3.10183" ry="3.099" transform="rotate(21.0645 39.5307 20.6653)" fill="white"/>
<ellipse cx="48.7934" cy="24.233" rx="3.10183" ry="3.099" transform="rotate(21.0645 48.7934 24.233)" fill="white"/>
<ellipse cx="58.0559" cy="27.8005" rx="3.10183" ry="3.099" transform="rotate(21.0645 58.0559 27.8005)" fill="white"/>
<ellipse cx="67.3186" cy="31.368" rx="3.10183" ry="3.099" transform="rotate(21.0645 67.3186 31.368)" fill="white"/>
<ellipse cx="76.581" cy="34.9356" rx="3.10183" ry="3.099" transform="rotate(21.0645 76.581 34.9356)" fill="white"/>
<ellipse cx="85.8437" cy="38.5031" rx="3.10183" ry="3.099" transform="rotate(21.0645 85.8437 38.5031)" fill="white"/>
<ellipse cx="95.1062" cy="42.0706" rx="3.10183" ry="3.099" transform="rotate(21.0645 95.1062 42.0706)" fill="white"/>
<ellipse cx="104.369" cy="45.6382" rx="3.10183" ry="3.099" transform="rotate(21.0645 104.369 45.6382)" fill="white"/>
<ellipse cx="17.8869" cy="21.6276" rx="3.10183" ry="3.099" transform="rotate(21.0645 17.8869 21.6276)" fill="white"/>
<ellipse cx="27.1496" cy="25.1951" rx="3.10183" ry="3.099" transform="rotate(21.0645 27.1496 25.1951)" fill="white"/>
<ellipse cx="36.4121" cy="28.7627" rx="3.10183" ry="3.099" transform="rotate(21.0645 36.4121 28.7627)" fill="white"/>
<ellipse cx="45.6748" cy="32.3303" rx="3.10183" ry="3.099" transform="rotate(21.0645 45.6748 32.3303)" fill="white"/>
<ellipse cx="54.9372" cy="35.8978" rx="3.10183" ry="3.099" transform="rotate(21.0645 54.9372 35.8978)" fill="white"/>
<ellipse cx="64.1999" cy="39.4654" rx="3.10183" ry="3.099" transform="rotate(21.0645 64.1999 39.4654)" fill="white"/>
<ellipse cx="73.4624" cy="43.0329" rx="3.10183" ry="3.099" transform="rotate(21.0645 73.4624 43.0329)" fill="white"/>
<ellipse cx="82.7251" cy="46.6004" rx="3.10183" ry="3.099" transform="rotate(21.0645 82.7251 46.6004)" fill="white"/>
<ellipse cx="91.9875" cy="50.168" rx="3.10183" ry="3.099" transform="rotate(21.0645 91.9875 50.168)" fill="white"/>
<ellipse cx="101.25" cy="53.7355" rx="3.10183" ry="3.099" transform="rotate(21.0645 101.25 53.7355)" fill="white"/>
<ellipse cx="14.7678" cy="29.7248" rx="3.10183" ry="3.099" transform="rotate(21.0645 14.7678 29.7248)" fill="white"/>
<ellipse cx="24.0305" cy="33.2923" rx="3.10183" ry="3.099" transform="rotate(21.0645 24.0305 33.2923)" fill="white"/>
<ellipse cx="33.2929" cy="36.8598" rx="3.10183" ry="3.099" transform="rotate(21.0645 33.2929 36.8598)" fill="white"/>
<ellipse cx="42.5556" cy="40.4274" rx="3.10183" ry="3.099" transform="rotate(21.0645 42.5556 40.4274)" fill="white"/>
<ellipse cx="51.8181" cy="43.9949" rx="3.10183" ry="3.099" transform="rotate(21.0645 51.8181 43.9949)" fill="white"/>
<ellipse cx="61.0808" cy="47.5624" rx="3.10183" ry="3.099" transform="rotate(21.0645 61.0808 47.5624)" fill="white"/>
<ellipse cx="70.3432" cy="51.1301" rx="3.10183" ry="3.099" transform="rotate(21.0645 70.3432 51.1301)" fill="white"/>
<ellipse cx="79.6059" cy="54.6976" rx="3.10183" ry="3.099" transform="rotate(21.0645 79.6059 54.6976)" fill="white"/>
<ellipse cx="88.8684" cy="58.2651" rx="3.10183" ry="3.099" transform="rotate(21.0645 88.8684 58.2651)" fill="white"/>
<ellipse cx="98.1308" cy="61.8327" rx="3.10183" ry="3.099" transform="rotate(21.0645 98.1308 61.8327)" fill="white"/>
<ellipse cx="11.6491" cy="37.8222" rx="3.10183" ry="3.099" transform="rotate(21.0645 11.6491 37.8222)" fill="white"/>
<ellipse cx="20.9116" cy="41.3898" rx="3.10183" ry="3.099" transform="rotate(21.0645 20.9116 41.3898)" fill="white"/>
<ellipse cx="30.1743" cy="44.9573" rx="3.10183" ry="3.099" transform="rotate(21.0645 30.1743 44.9573)" fill="white"/>
<ellipse cx="39.4367" cy="48.5248" rx="3.10183" ry="3.099" transform="rotate(21.0645 39.4367 48.5248)" fill="white"/>
<ellipse cx="48.6994" cy="52.0925" rx="3.10183" ry="3.099" transform="rotate(21.0645 48.6994 52.0925)" fill="white"/>
<ellipse cx="57.9619" cy="55.66" rx="3.10183" ry="3.099" transform="rotate(21.0645 57.9619 55.66)" fill="white"/>
<ellipse cx="67.2246" cy="59.2275" rx="3.10183" ry="3.099" transform="rotate(21.0645 67.2246 59.2275)" fill="white"/>
<ellipse cx="76.487" cy="62.7951" rx="3.10183" ry="3.099" transform="rotate(21.0645 76.487 62.7951)" fill="white"/>
<ellipse cx="85.7497" cy="66.3626" rx="3.10183" ry="3.099" transform="rotate(21.0645 85.7497 66.3626)" fill="white"/>
<ellipse cx="95.0122" cy="69.9301" rx="3.10183" ry="3.099" transform="rotate(21.0645 95.0122 69.9301)" fill="white"/>
<ellipse cx="8.53071" cy="45.9197" rx="3.10183" ry="3.099" transform="rotate(21.0645 8.53071 45.9197)" fill="white"/>
<ellipse cx="17.7932" cy="49.4872" rx="3.10183" ry="3.099" transform="rotate(21.0645 17.7932 49.4872)" fill="white"/>
<ellipse cx="27.0559" cy="53.0547" rx="3.10183" ry="3.099" transform="rotate(21.0645 27.0559 53.0547)" fill="white"/>
<ellipse cx="36.3183" cy="56.6224" rx="3.10183" ry="3.099" transform="rotate(21.0645 36.3183 56.6224)" fill="white"/>
<ellipse cx="45.581" cy="60.1899" rx="3.10183" ry="3.099" transform="rotate(21.0645 45.581 60.1899)" fill="white"/>
<ellipse cx="54.8435" cy="63.7574" rx="3.10183" ry="3.099" transform="rotate(21.0645 54.8435 63.7574)" fill="white"/>
<ellipse cx="64.1062" cy="67.325" rx="3.10183" ry="3.099" transform="rotate(21.0645 64.1062 67.325)" fill="white"/>
<ellipse cx="73.3686" cy="70.8925" rx="3.10183" ry="3.099" transform="rotate(21.0645 73.3686 70.8925)" fill="white"/>
<ellipse cx="82.6313" cy="74.46" rx="3.10183" ry="3.099" transform="rotate(21.0645 82.6313 74.46)" fill="white"/>
<ellipse cx="91.8938" cy="78.0276" rx="3.10183" ry="3.099" transform="rotate(21.0645 91.8938 78.0276)" fill="white"/>
<ellipse cx="5.41157" cy="54.0169" rx="3.10183" ry="3.099" transform="rotate(21.0645 5.41157 54.0169)" fill="white"/>
<ellipse cx="14.674" cy="57.5845" rx="3.10183" ry="3.099" transform="rotate(21.0645 14.674 57.5845)" fill="white"/>
<ellipse cx="23.9367" cy="61.152" rx="3.10183" ry="3.099" transform="rotate(21.0645 23.9367 61.152)" fill="white"/>
<ellipse cx="33.1992" cy="64.7195" rx="3.10183" ry="3.099" transform="rotate(21.0645 33.1992 64.7195)" fill="white"/>
<ellipse cx="42.4619" cy="68.2872" rx="3.10183" ry="3.099" transform="rotate(21.0645 42.4619 68.2872)" fill="white"/>
<ellipse cx="51.7243" cy="71.8547" rx="3.10183" ry="3.099" transform="rotate(21.0645 51.7243 71.8547)" fill="white"/>
<ellipse cx="60.987" cy="75.4222" rx="3.10183" ry="3.099" transform="rotate(21.0645 60.987 75.4222)" fill="white"/>
<ellipse cx="70.2495" cy="78.9898" rx="3.10183" ry="3.099" transform="rotate(21.0645 70.2495 78.9898)" fill="white"/>
<ellipse cx="79.5122" cy="82.5573" rx="3.10183" ry="3.099" transform="rotate(21.0645 79.5122 82.5573)" fill="white"/>
<ellipse cx="88.7746" cy="86.1248" rx="3.10183" ry="3.099" transform="rotate(21.0645 88.7746 86.1248)" fill="white"/>
<ellipse cx="2.29292" cy="62.1144" rx="3.10183" ry="3.099" transform="rotate(21.0645 2.29292 62.1144)" fill="white"/>
<ellipse cx="11.5554" cy="65.6819" rx="3.10183" ry="3.099" transform="rotate(21.0645 11.5554 65.6819)" fill="white"/>
<ellipse cx="20.8181" cy="69.2496" rx="3.10183" ry="3.099" transform="rotate(21.0645 20.8181 69.2496)" fill="white"/>
<ellipse cx="30.0805" cy="72.8171" rx="3.10183" ry="3.099" transform="rotate(21.0645 30.0805 72.8171)" fill="white"/>
<ellipse cx="39.3432" cy="76.3846" rx="3.10183" ry="3.099" transform="rotate(21.0645 39.3432 76.3846)" fill="white"/>
<ellipse cx="48.6057" cy="79.9522" rx="3.10183" ry="3.099" transform="rotate(21.0645 48.6057 79.9522)" fill="white"/>
<ellipse cx="57.8684" cy="83.5197" rx="3.10183" ry="3.099" transform="rotate(21.0645 57.8684 83.5197)" fill="white"/>
<ellipse cx="67.1308" cy="87.0872" rx="3.10183" ry="3.099" transform="rotate(21.0645 67.1308 87.0872)" fill="white"/>
<ellipse cx="76.3935" cy="90.6548" rx="3.10183" ry="3.099" transform="rotate(21.0645 76.3935 90.6548)" fill="white"/>
<ellipse cx="85.656" cy="94.2223" rx="3.10183" ry="3.099" transform="rotate(21.0645 85.656 94.2223)" fill="white"/>
<ellipse cx="-0.825732" cy="70.2117" rx="3.10183" ry="3.099" transform="rotate(21.0645 -0.825732 70.2117)" fill="white"/>
<ellipse cx="8.43672" cy="73.7794" rx="3.10183" ry="3.099" transform="rotate(21.0645 8.43672 73.7794)" fill="white"/>
<ellipse cx="17.6994" cy="77.3469" rx="3.10183" ry="3.099" transform="rotate(21.0645 17.6994 77.3469)" fill="white"/>
<ellipse cx="26.9619" cy="80.9144" rx="3.10183" ry="3.099" transform="rotate(21.0645 26.9619 80.9144)" fill="white"/>
<ellipse cx="36.2246" cy="84.4819" rx="3.10183" ry="3.099" transform="rotate(21.0645 36.2246 84.4819)" fill="white"/>
<ellipse cx="45.487" cy="88.0494" rx="3.10183" ry="3.099" transform="rotate(21.0645 45.487 88.0494)" fill="white"/>
<ellipse cx="54.7497" cy="91.617" rx="3.10183" ry="3.099" transform="rotate(21.0645 54.7497 91.617)" fill="white"/>
<ellipse cx="64.0122" cy="95.1845" rx="3.10183" ry="3.099" transform="rotate(21.0645 64.0122 95.1845)" fill="white"/>
<ellipse cx="73.2749" cy="98.752" rx="3.10183" ry="3.099" transform="rotate(21.0645 73.2749 98.752)" fill="white"/>
<ellipse cx="82.5373" cy="102.32" rx="3.10183" ry="3.099" transform="rotate(21.0645 82.5373 102.32)" fill="white"/>
<ellipse cx="-3.94438" cy="78.309" rx="3.10183" ry="3.099" transform="rotate(21.0645 -3.94438 78.309)" fill="white"/>
<ellipse cx="5.31807" cy="81.8765" rx="3.10183" ry="3.099" transform="rotate(21.0645 5.31807 81.8765)" fill="white"/>
<ellipse cx="14.5808" cy="85.444" rx="3.10183" ry="3.099" transform="rotate(21.0645 14.5808 85.444)" fill="white"/>
<ellipse cx="23.8432" cy="89.0117" rx="3.10183" ry="3.099" transform="rotate(21.0645 23.8432 89.0117)" fill="white"/>
<ellipse cx="33.1059" cy="92.5792" rx="3.10183" ry="3.099" transform="rotate(21.0645 33.1059 92.5792)" fill="white"/>
<ellipse cx="42.3684" cy="96.1467" rx="3.10183" ry="3.099" transform="rotate(21.0645 42.3684 96.1467)" fill="white"/>
<ellipse cx="51.6311" cy="99.7143" rx="3.10183" ry="3.099" transform="rotate(21.0645 51.6311 99.7143)" fill="white"/>
<ellipse cx="60.8935" cy="103.282" rx="3.10183" ry="3.099" transform="rotate(21.0645 60.8935 103.282)" fill="white"/>
<ellipse cx="70.1562" cy="106.849" rx="3.10183" ry="3.099" transform="rotate(21.0645 70.1562 106.849)" fill="white"/>
<ellipse cx="79.4187" cy="110.417" rx="3.10183" ry="3.099" transform="rotate(21.0645 79.4187 110.417)" fill="white"/>
<path d="M1066.34 73.7586C1059.69 194.101 983.158 202.519 996.969 285.504C1006.24 341.004 1057.98 368.909 1109.76 368.588C1157.25 368.291 1202.66 344.424 1214.67 300.76C1230.81 241.878 1193.64 188.307 1179.7 170.922C1177.41 168.088 1173.06 168.288 1171.05 171.322C1165.59 179.524 1154.66 191.673 1141.45 183.778C1131.22 177.659 1131.16 167.177 1118.67 136.663C1106.13 106.036 1086.83 82.5553 1075.57 70.382C1074.47 69.1986 1073.08 68.6666 1071.7 68.6666C1069.05 68.6666 1066.52 70.6578 1066.34 73.7586Z" fill="url(#paint1_linear_233_10)"/>
<path d="M1143.6 298.281C1123.49 308.354 1090.49 308.387 1070.4 298.281" stroke="#190233" stroke-width="50" stroke-linecap="round" stroke-linejoin="round"/>
<path d="M1101.73 241.184C1101.73 260.796 1085.83 276.696 1066.22 276.696C1046.61 276.696 1030.71 260.796 1030.71 241.184C1030.71 221.57 1046.61 205.671 1066.22 205.671C1085.83 205.671 1101.73 221.57 1101.73 241.184Z" fill="white"/>
<path d="M1093.23 241.184C1093.23 256.103 1081.14 268.198 1066.22 268.198C1051.3 268.198 1039.21 256.103 1039.21 241.184C1039.21 226.264 1051.3 214.17 1066.22 214.17C1081.14 214.17 1093.23 226.264 1093.23 241.184Z" fill="#0B1833"/>
<path d="M1069.55 234.446C1069.55 240.1 1065.35 244.683 1060.16 244.683C1054.98 244.683 1050.77 240.1 1050.77 234.446C1050.77 228.792 1054.98 224.21 1060.16 224.21C1065.35 224.21 1069.55 228.792 1069.55 234.446Z" fill="white"/>
<path d="M1079.77 248.606C1079.77 251.567 1077.51 253.966 1074.72 253.966C1071.93 253.966 1069.67 251.567 1069.67 248.606C1069.67 245.647 1071.93 243.248 1074.72 243.248C1077.51 243.248 1079.77 245.647 1079.77 248.606Z" fill="white"/>
<path d="M1024.67 144.501C1024.67 147.009 1026.71 149.043 1029.22 149.043C1031.72 149.043 1033.76 147.009 1033.76 144.501C1033.76 141.993 1031.72 139.96 1029.22 139.96C1026.71 139.96 1024.67 141.993 1024.67 144.501Z" fill="url(#paint2_linear_233_10)"/>
<path d="M1170.58 119.638C1170.58 123.098 1173.39 125.901 1176.85 125.901C1180.31 125.901 1183.11 123.098 1183.11 119.638C1183.11 116.18 1180.31 113.377 1176.85 113.377C1173.39 113.377 1170.58 116.18 1170.58 119.638Z" fill="url(#paint3_linear_233_10)"/>
<path d="M1219.39 177.26C1219.84 177.478 1220.04 178.594 1219.84 180.98C1219.52 184.729 1221.59 190.429 1221.38 195.663C1221.05 203.766 1217.49 205.681 1214.5 204.469C1211.68 203.331 1210.57 198.14 1212.24 191.249C1213.53 185.938 1217.87 176.527 1219.39 177.26L1219.39 177.26Z" fill="url(#paint4_linear_233_10)"/>
<path d="M1181.8 241.184C1181.8 260.796 1165.9 276.696 1146.28 276.696C1126.67 276.696 1110.77 260.796 1110.77 241.184C1110.77 221.57 1126.67 205.671 1146.28 205.671C1165.9 205.671 1181.8 221.57 1181.8 241.184Z" fill="white"/>
<path d="M1173.3 241.184C1173.3 256.103 1161.2 268.198 1146.28 268.198C1131.37 268.198 1119.27 256.103 1119.27 241.184C1119.27 226.264 1131.37 214.17 1146.28 214.17C1161.2 214.17 1173.3 226.264 1173.3 241.184Z" fill="#0B1833"/>
<path d="M1149.62 234.446C1149.62 240.1 1145.41 244.683 1140.23 244.683C1135.04 244.683 1130.84 240.1 1130.84 234.446C1130.84 228.792 1135.04 224.21 1140.23 224.21C1145.41 224.21 1149.62 228.792 1149.62 234.446Z" fill="white"/>
<path d="M1159.84 248.606C1159.84 251.567 1157.58 253.966 1154.79 253.966C1152 253.966 1149.73 251.567 1149.73 248.606C1149.73 245.647 1152 243.248 1154.79 243.248C1157.58 243.248 1159.84 245.647 1159.84 248.606Z" fill="white"/>
<g clip-path="url(#clip1_233_10)">
<g clip-path="url(#clip2_233_10)">
<circle cx="13.9058" cy="364.822" r="2" transform="rotate(41.1142 13.9058 364.822)" fill="#FFCC00"/>
<circle cx="25.9602" cy="375.343" r="2" transform="rotate(41.1142 25.9602 375.343)" fill="#FFCC00"/>
<circle cx="38.0147" cy="385.864" r="2" transform="rotate(41.1142 38.0147 385.864)" fill="#FFCC00"/>
<circle cx="50.0691" cy="396.385" r="2" transform="rotate(41.1142 50.0691 396.385)" fill="#FFCC00"/>
<circle cx="62.1233" cy="406.906" r="2" transform="rotate(41.1142 62.1233 406.906)" fill="#FFCC00"/>
</g>
<g clip-path="url(#clip3_233_10)">
<circle cx="3.38479" cy="376.876" r="2" transform="rotate(41.1142 3.38479 376.876)" fill="#FFCC00"/>
<circle cx="15.4392" cy="387.397" r="2" transform="rotate(41.1142 15.4392 387.397)" fill="#FFCC00"/>
<circle cx="27.4937" cy="397.918" r="2" transform="rotate(41.1142 27.4937 397.918)" fill="#FFCC00"/>
<circle cx="39.5481" cy="408.439" r="2" transform="rotate(41.1142 39.5481 408.439)" fill="#FFCC00"/>
<circle cx="51.6023" cy="418.96" r="2" transform="rotate(41.1142 51.6023 418.96)" fill="#FFCC00"/>
</g>
<g clip-path="url(#clip4_233_10)">
<circle cx="4.91824" cy="399.452" r="2" transform="rotate(41.1142 4.91824 399.452)" fill="#FFCC00"/>
<circle cx="16.9727" cy="409.973" r="2" transform="rotate(41.1142 16.9727 409.973)" fill="#FFCC00"/>
<circle cx="29.0271" cy="420.494" r="2" transform="rotate(41.1142 29.0271 420.494)" fill="#FFCC00"/>
<circle cx="41.0813" cy="431.015" r="2" transform="rotate(41.1142 41.0813 431.015)" fill="#FFCC00"/>
</g>
<g clip-path="url(#clip5_233_10)">
<circle cx="6.45169" cy="422.027" r="2" transform="rotate(41.1142 6.45169 422.027)" fill="#FFCC00"/>
<circle cx="18.5061" cy="432.548" r="2" transform="rotate(41.1142 18.5061 432.548)" fill="#FFCC00"/>
</g>
<g clip-path="url(#clip6_233_10)">
</g>
</g>
</g>
<defs>
<linearGradient id="paint0_linear_233_10" x1="1411" y1="430" x2="-6.7274e-05" y2="12" gradientUnits="userSpaceOnUse">
<stop stop-color="#FE8C00"/>
<stop offset="1" stop-color="#F83600"/>
</linearGradient>
<linearGradient id="paint1_linear_233_10" x1="1118.29" y1="103.145" x2="1053.62" y2="339.145" gradientUnits="userSpaceOnUse">
<stop stop-color="#FF841D"/>
<stop offset="0.5" stop-color="#FC4227"/>
<stop offset="1" stop-color="#F90030"/>
</linearGradient>
<linearGradient id="paint2_linear_233_10" x1="1037.68" y1="48.9384" x2="989.397" y2="225.133" gradientUnits="userSpaceOnUse">
<stop stop-color="#FF841D"/>
<stop offset="0.5" stop-color="#FC4227"/>
<stop offset="1" stop-color="#F90030"/>
</linearGradient>
<linearGradient id="paint3_linear_233_10" x1="1188.51" y1="-12.1432" x2="1121.94" y2="230.83" gradientUnits="userSpaceOnUse">
<stop stop-color="#FF841D"/>
<stop offset="0.5" stop-color="#FC4227"/>
<stop offset="1" stop-color="#F90030"/>
</linearGradient>
<linearGradient id="paint4_linear_233_10" x1="1233.73" y1="102.039" x2="1218.56" y2="276.544" gradientUnits="userSpaceOnUse">
<stop stop-color="#FF841D"/>
<stop offset="0.5" stop-color="#FC4227"/>
<stop offset="1" stop-color="#F90030"/>
</linearGradient>
<clipPath id="clip0_233_10">
<rect width="1411" height="430" fill="white"/>
</clipPath>
<clipPath id="clip1_233_10">
<rect width="68" height="68" fill="white" transform="translate(13.7141 362) rotate(41.1142)"/>
</clipPath>
<clipPath id="clip2_233_10">
<rect width="68" height="4" fill="white" transform="translate(13.7141 362) rotate(41.1142)"/>
</clipPath>
<clipPath id="clip3_233_10">
<rect width="68" height="4" fill="white" transform="translate(3.19312 374.054) rotate(41.1142)"/>
</clipPath>
<clipPath id="clip4_233_10">
<rect width="68" height="4" fill="white" transform="translate(-7.32788 386.109) rotate(41.1142)"/>
</clipPath>
<clipPath id="clip5_233_10">
<rect width="68" height="4" fill="white" transform="translate(-17.8489 398.163) rotate(41.1142)"/>
</clipPath>
<clipPath id="clip6_233_10">
<rect width="68" height="4" fill="white" transform="translate(-28.3699 410.218) rotate(41.1142)"/>
</clipPath>
</defs>
</svg>
