<svg width="493" height="319" viewBox="0 0 493 319" fill="none" xmlns="http://www.w3.org/2000/svg">
<g clip-path="url(#clip0_192_2384)">
<rect width="493" height="319" rx="20" fill="#34C471"/>
<path d="M-159.216 124.754C-152.145 135.58 -143.857 145.844 -134.35 155.35C-124.844 164.857 -114.58 173.145 -103.754 180.216L-159.216 124.754Z" fill="white" fill-opacity="0.34"/>
<path d="M-82.3898 192.265L-171.265 103.39C-173.953 97.8026 -176.351 92.1111 -178.461 86.3378L-65.3377 199.461C-71.1111 197.351 -76.8026 194.953 -82.3898 192.265Z" fill="white" fill-opacity="0.34"/>
<path d="M-51.5841 203.899C-47.2739 205.11 -42.9294 206.167 -38.5592 207.068L-186.068 59.5592C-185.167 63.9294 -184.11 68.2739 -182.899 72.5841L-51.5841 203.899Z" fill="white" fill-opacity="0.34"/>
<path d="M-188.045 48.2666L-27.2666 209.045C-23.5681 209.578 -19.8569 210.002 -16.1382 210.318L-189.318 37.1382C-189.002 40.8569 -188.578 44.5681 -188.045 48.2666Z" fill="white" fill-opacity="0.34"/>
<path d="M-189.898 27.242L-6.24199 210.898C-2.93566 211.006 0.372959 211.028 3.68021 210.965L-189.965 17.3198C-190.028 20.6271 -190.006 23.9357 -189.898 27.242Z" fill="white" fill-opacity="0.34"/>
<path d="M-189.583 8.3853L12.6147 210.583C15.6333 210.384 18.6481 210.112 21.6562 209.769L-188.769 -0.65625C-189.112 2.3519 -189.384 5.36667 -189.583 8.3853Z" fill="white" fill-opacity="0.34"/>
<path d="M-187.653 -8.85605L29.856 208.653C32.6461 208.212 35.4282 207.708 38.2001 207.142L-186.142 -17.2001C-186.708 -14.4282 -187.212 -11.6461 -187.653 -8.85605Z" fill="white" fill-opacity="0.34"/>
<path d="M-184.426 -24.8006L45.8005 205.426C48.399 204.784 50.9866 204.085 53.5614 203.332L-182.332 -32.5614C-183.085 -29.9866 -183.784 -27.3991 -184.426 -24.8006Z" fill="white" fill-opacity="0.34"/>
<path d="M-180.104 -39.6499L60.6499 201.104C63.0816 200.287 65.5001 199.42 67.9037 198.502L-177.502 -46.9037C-178.42 -44.5001 -179.287 -42.0816 -180.104 -39.6499Z" fill="white" fill-opacity="0.34"/>
<path d="M-174.823 -53.5399L74.5399 195.823C76.8219 194.851 79.0888 193.832 81.3391 192.766L-171.766 -60.3391C-172.832 -58.0888 -173.851 -55.8219 -174.823 -53.5399Z" fill="white" fill-opacity="0.34"/>
<path d="M-168.676 -66.565L87.565 189.676C89.7097 188.562 91.8376 187.405 93.9474 186.203L-165.203 -72.9474C-166.405 -70.8376 -167.562 -68.7097 -168.676 -66.565Z" fill="white" fill-opacity="0.34"/>
<path d="M-161.733 -78.7933L99.7933 182.733C101.81 181.487 103.808 180.199 105.786 178.87L-157.87 -84.786C-159.199 -82.8075 -160.487 -80.8095 -161.733 -78.7933Z" fill="white" fill-opacity="0.34"/>
<path d="M-154.042 -90.2735L111.274 175.042C113.168 173.67 115.042 172.259 116.896 170.809L-149.809 -95.8961C-151.259 -94.0422 -152.67 -92.1677 -154.042 -90.2735Z" fill="white" fill-opacity="0.34"/>
<path d="M-145.638 -101.041L122.041 166.638C123.817 165.146 125.573 163.616 127.307 162.048L-141.048 -106.307C-142.616 -104.573 -144.146 -102.817 -145.638 -101.041Z" fill="white" fill-opacity="0.34"/>
<path d="M-136.545 -111.12L132.12 157.545C132.868 156.821 133.611 156.089 134.35 155.35C135.257 154.443 136.153 153.529 137.038 152.608L-131.608 -116.038C-132.529 -115.153 -133.443 -114.257 -134.35 -113.35C-135.089 -112.611 -135.821 -111.868 -136.545 -111.12Z" fill="white" fill-opacity="0.34"/>
<path d="M-126.779 -120.524L141.524 147.779C143.086 146.039 144.609 144.277 146.095 142.494L-121.494 -125.095C-123.277 -123.609 -125.039 -122.086 -126.779 -120.524Z" fill="white" fill-opacity="0.34"/>
<path d="M-116.332 -129.249L150.249 137.332C151.693 135.471 153.098 133.59 154.463 131.69L-110.69 -133.463C-112.591 -132.098 -114.471 -130.693 -116.332 -129.249Z" fill="white" fill-opacity="0.34"/>
<path d="M-105.184 -137.273L158.273 126.184C159.595 124.199 160.876 122.194 162.116 120.171L-99.1715 -141.116C-101.194 -139.876 -103.199 -138.595 -105.184 -137.273Z" fill="white" fill-opacity="0.34"/>
<path d="M-93.3064 -144.567L165.567 114.306C166.761 112.189 167.912 110.054 169.019 107.903L-86.9029 -148.019C-89.0545 -146.912 -91.1895 -145.761 -93.3064 -144.567Z" fill="white" fill-opacity="0.34"/>
<path d="M-80.6563 -151.088L172.088 101.656C173.146 99.3983 174.157 97.1238 175.122 94.8343L-73.8343 -154.122C-76.1238 -153.157 -78.3983 -152.146 -80.6563 -151.088Z" fill="white" fill-opacity="0.34"/>
<path d="M-67.1756 -156.779L177.779 88.1755C178.688 85.7635 179.547 83.3367 180.355 80.8968L-59.8969 -159.355C-62.3368 -158.547 -64.7636 -157.688 -67.1756 -156.779Z" fill="white" fill-opacity="0.34"/>
<path d="M-52.7832 -161.558L182.558 73.7832C183.302 71.1987 183.991 68.6016 184.624 65.9937L-44.9938 -163.624C-47.6017 -162.991 -50.1988 -162.302 -52.7832 -161.558Z" fill="white" fill-opacity="0.34"/>
<path d="M-37.3644 -165.31L186.31 58.3644C186.866 55.5812 187.359 52.788 187.789 49.987L-28.9871 -166.789C-31.7881 -166.359 -34.5813 -165.866 -37.3644 -165.31Z" fill="white" fill-opacity="0.34"/>
<path d="M-20.7527 -167.87L188.87 41.7527C189.2 38.7307 189.458 35.7023 189.643 32.6703L-11.6703 -168.643C-14.7023 -168.458 -17.7307 -168.2 -20.7527 -167.87Z" fill="white" fill-opacity="0.34"/>
<path d="M-2.6922 -168.981L189.981 23.6922C190.028 20.3668 189.988 17.0404 189.861 13.7167L7.28328 -168.861C3.95957 -168.988 0.633196 -169.028 -2.6922 -168.981Z" fill="white" fill-opacity="0.34"/>
<path d="M17.2392 -168.221L189.221 3.76079C188.882 0.015677 188.432 -3.72127 187.871 -7.44476L28.4447 -166.871C24.7212 -167.432 20.9843 -167.882 17.2392 -168.221Z" fill="white" fill-opacity="0.34"/>
<path d="M39.8304 -164.801L185.801 -18.8305C184.859 -23.247 183.758 -27.6364 182.498 -31.9897L52.9896 -161.498C48.6364 -162.758 44.2469 -163.859 39.8304 -164.801Z" fill="white" fill-opacity="0.34"/>
<path d="M66.9337 -156.87L177.87 -45.9338C175.652 -51.8363 173.131 -57.6507 170.306 -63.3527L84.3526 -149.306C78.6506 -152.131 72.8363 -154.652 66.9337 -156.87Z" fill="white" fill-opacity="0.34"/>
<path d="M106.77 -136.205L157.205 -85.7697C150.588 -95.489 142.97 -104.731 134.35 -113.35C125.731 -121.97 116.489 -129.588 106.77 -136.205Z" fill="white" fill-opacity="0.34"/>
<path d="M291.784 504.754C298.855 515.58 307.143 525.844 316.65 535.35C326.156 544.857 336.42 553.145 347.246 560.216L291.784 504.754Z" fill="white" fill-opacity="0.34"/>
<path d="M368.61 572.265L279.735 483.39C277.047 477.803 274.649 472.111 272.539 466.338L385.662 579.461C379.889 577.351 374.197 574.953 368.61 572.265Z" fill="white" fill-opacity="0.34"/>
<path d="M399.416 583.899C403.726 585.11 408.071 586.167 412.441 587.068L264.932 439.559C265.833 443.929 266.89 448.274 268.101 452.584L399.416 583.899Z" fill="white" fill-opacity="0.34"/>
<path d="M262.955 428.267L423.733 589.045C427.432 589.578 431.143 590.002 434.862 590.318L261.682 417.138C261.998 420.857 262.422 424.568 262.955 428.267Z" fill="white" fill-opacity="0.34"/>
<path d="M261.102 407.242L444.758 590.898C448.064 591.006 451.373 591.028 454.68 590.965L261.035 397.32C260.972 400.627 260.994 403.936 261.102 407.242Z" fill="white" fill-opacity="0.34"/>
<path d="M261.417 388.385L463.615 590.583C466.633 590.384 469.648 590.112 472.656 589.769L262.231 379.344C261.888 382.352 261.616 385.367 261.417 388.385Z" fill="white" fill-opacity="0.34"/>
<path d="M263.347 371.144L480.856 588.653C483.646 588.212 486.428 587.708 489.2 587.142L264.858 362.8C264.292 365.572 263.788 368.354 263.347 371.144Z" fill="white" fill-opacity="0.34"/>
<path d="M266.574 355.199L496.801 585.426C499.399 584.784 501.987 584.085 504.561 583.332L268.668 347.439C267.915 350.013 267.216 352.601 266.574 355.199Z" fill="white" fill-opacity="0.34"/>
<path d="M270.896 340.35L511.65 581.104C514.082 580.287 516.5 579.42 518.904 578.502L273.498 333.096C272.58 335.5 271.713 337.918 270.896 340.35Z" fill="white" fill-opacity="0.34"/>
<path d="M276.177 326.46L525.54 575.823C527.822 574.851 530.089 573.832 532.339 572.766L279.234 319.661C278.168 321.911 277.149 324.178 276.177 326.46Z" fill="white" fill-opacity="0.34"/>
<path d="M282.324 313.435L538.565 569.676C540.71 568.562 542.838 567.405 544.947 566.203L285.797 307.053C284.595 309.162 283.438 311.29 282.324 313.435Z" fill="white" fill-opacity="0.34"/>
<path d="M289.267 301.207L550.793 562.733C552.81 561.487 554.808 560.199 556.786 558.87L293.13 295.214C291.801 297.193 290.513 299.191 289.267 301.207Z" fill="white" fill-opacity="0.34"/>
<path d="M296.958 289.726L562.274 555.042C564.168 553.67 566.042 552.259 567.896 550.809L301.191 284.104C299.741 285.958 298.33 287.832 296.958 289.726Z" fill="white" fill-opacity="0.34"/>
<path d="M305.362 278.959L573.041 546.638C574.817 545.146 576.573 543.616 578.307 542.048L309.952 273.693C308.384 275.427 306.854 277.183 305.362 278.959Z" fill="white" fill-opacity="0.34"/>
<path d="M314.455 268.88L583.12 537.545C583.868 536.821 584.611 536.089 585.35 535.35C586.257 534.443 587.153 533.529 588.038 532.608L319.392 263.962C318.471 264.847 317.557 265.743 316.65 266.65C315.911 267.389 315.179 268.132 314.455 268.88Z" fill="white" fill-opacity="0.34"/>
<path d="M324.221 259.476L592.524 527.779C594.086 526.039 595.609 524.277 597.095 522.494L329.506 254.905C327.723 256.391 325.961 257.914 324.221 259.476Z" fill="white" fill-opacity="0.34"/>
<path d="M334.668 250.751L601.249 517.332C602.693 515.471 604.098 513.59 605.463 511.69L340.31 246.537C338.409 247.902 336.529 249.307 334.668 250.751Z" fill="white" fill-opacity="0.34"/>
<path d="M345.816 242.727L609.273 506.184C610.595 504.199 611.876 502.194 613.116 500.171L351.828 238.884C349.806 240.124 347.801 241.405 345.816 242.727Z" fill="white" fill-opacity="0.34"/>
<path d="M357.694 235.433L616.567 494.306C617.761 492.189 618.912 490.054 620.019 487.903L364.097 231.981C361.945 233.088 359.811 234.239 357.694 235.433Z" fill="white" fill-opacity="0.34"/>
<path d="M370.344 228.912L623.088 481.656C624.146 479.398 625.157 477.124 626.122 474.834L377.166 225.878C374.876 226.843 372.602 227.854 370.344 228.912Z" fill="white" fill-opacity="0.34"/>
<path d="M383.824 223.221L628.779 468.176C629.688 465.764 630.547 463.337 631.355 460.897L391.103 220.645C388.663 221.453 386.236 222.312 383.824 223.221Z" fill="white" fill-opacity="0.34"/>
<path d="M398.217 218.442L633.558 453.783C634.302 451.199 634.991 448.602 635.624 445.994L406.006 216.376C403.398 217.009 400.801 217.698 398.217 218.442Z" fill="white" fill-opacity="0.34"/>
<path d="M413.636 214.69L637.31 438.364C637.866 435.581 638.359 432.788 638.789 429.987L422.013 213.211C419.212 213.641 416.419 214.134 413.636 214.69Z" fill="white" fill-opacity="0.34"/>
<path d="M430.247 212.13L639.87 421.753C640.2 418.731 640.458 415.702 640.643 412.67L439.33 211.357C436.298 211.542 433.269 211.8 430.247 212.13Z" fill="white" fill-opacity="0.34"/>
<path d="M448.308 211.019L640.981 403.692C641.028 400.367 640.988 397.04 640.861 393.717L458.283 211.139C454.96 211.012 451.633 210.972 448.308 211.019Z" fill="white" fill-opacity="0.34"/>
<path d="M468.239 211.779L640.221 383.761C639.882 380.016 639.432 376.279 638.871 372.555L479.445 213.129C475.721 212.568 471.984 212.118 468.239 211.779Z" fill="white" fill-opacity="0.34"/>
<path d="M490.83 215.199L636.801 361.17C635.859 356.753 634.758 352.364 633.498 348.01L503.99 218.502C499.636 217.242 495.247 216.141 490.83 215.199Z" fill="white" fill-opacity="0.34"/>
<path d="M517.934 223.13L628.87 334.066C626.652 328.164 624.131 322.349 621.306 316.647L535.353 230.694C529.651 227.869 523.836 225.348 517.934 223.13Z" fill="white" fill-opacity="0.34"/>
<path d="M557.77 243.795L608.205 294.23C601.588 284.511 593.97 275.269 585.35 266.65C576.731 258.03 567.489 250.412 557.77 243.795Z" fill="white" fill-opacity="0.34"/>
</g>
<defs>
<clipPath id="clip0_192_2384">
<rect width="493" height="319" rx="20" fill="white"/>
</clipPath>
</defs>
</svg>
