<svg width="100" height="100" viewBox="0 0 100 100" fill="none" xmlns="http://www.w3.org/2000/svg">
<path d="M85.625 17.1875H56.875L50.3125 30.3125H13.4375V82.8125H92.1875V17.1875H85.625ZM85.625 75.625H20.625V36.875H85.625V75.625ZM85.625 30.3125H60L63.125 23.75H85.3125V30.3125H85.625Z" fill="#FFB46D"/>
<path d="M80.3125 42.8125H1.5625L13.4375 82.8125H92.1875L80.3125 42.8125Z" fill="#FFB46D"/>
<path d="M96.875 49.3063V96.875H31.25V49.3031H96.875" fill="#FF942E"/>
<path d="M83.3562 55.625C82.1451 55.3687 80.8823 55.5559 79.7976 56.1523C78.7129 56.7488 77.8785 57.715 77.4463 58.8749C77.014 60.0349 77.0127 61.3115 77.4425 62.4723C77.8723 63.6332 78.7047 64.6011 79.7881 65.1998C80.8715 65.7986 82.1339 65.9884 83.3455 65.7347C84.5571 65.481 85.6373 64.8006 86.3894 63.8175C87.1416 62.8343 87.5157 61.6138 87.4436 60.378C87.3715 59.1422 86.8581 57.9734 85.9968 57.0844C85.2807 56.3469 84.3616 55.8389 83.3562 55.625V55.625ZM69.0093 82.7094L56.2499 64.9562L37.3062 91.2938H62.8499C64.9062 88.4313 66.9645 85.5698 69.0249 82.7094H69.0093ZM78.2593 73.0969L65.1718 91.2969H91.3499C86.9874 85.224 82.6239 79.1573 78.2593 73.0969V73.0969Z" fill="white"/>
</svg>
