<svg width="101" height="78" viewBox="0 0 101 78" fill="none" xmlns="http://www.w3.org/2000/svg">
<path d="M84.0625 0H55.3125L48.75 13.125H11.875V65.625H90.625V0H84.0625ZM84.0625 58.4375H19.0625V19.6875H84.0625V58.4375ZM84.0625 13.125H58.4375L61.5625 6.5625H83.75V13.125H84.0625Z" fill="#ACA4FF"/>
<path d="M78.75 25.625H0L11.875 65.625H90.625L78.75 25.625Z" fill="#ACA4FF"/>
<path d="M65.0625 53C64.6481 53 64.2507 53.1646 63.9576 53.4576C63.6646 53.7507 63.5 54.1481 63.5 54.5625V62.375C63.5 62.7894 63.6646 63.1868 63.9576 63.4799C64.2507 63.7729 64.6481 63.9375 65.0625 63.9375C65.4769 63.9375 65.8743 63.7729 66.1674 63.4799C66.4604 63.1868 66.625 62.7894 66.625 62.375V60.8125H67.4062C68.4423 60.8125 69.4358 60.4009 70.1684 59.6684C70.9009 58.9358 71.3125 57.9423 71.3125 56.9062C71.3125 55.8702 70.9009 54.8767 70.1684 54.1441C69.4358 53.4116 68.4423 53 67.4062 53H65.0625ZM67.4062 57.6875H66.625V56.125H67.4062C67.6135 56.125 67.8122 56.2073 67.9587 56.3538C68.1052 56.5003 68.1875 56.699 68.1875 56.9062C68.1875 57.1135 68.1052 57.3122 67.9587 57.4587C67.8122 57.6052 67.6135 57.6875 67.4062 57.6875ZM72.875 54.5625C72.875 54.1481 73.0396 53.7507 73.3326 53.4576C73.6257 53.1646 74.0231 53 74.4375 53H75.2188C76.6692 53 78.0602 53.5762 79.0857 54.6018C80.1113 55.6273 80.6875 57.0183 80.6875 58.4688C80.6875 59.9192 80.1113 61.3102 79.0857 62.3357C78.0602 63.3613 76.6692 63.9375 75.2188 63.9375H74.4375C74.0231 63.9375 73.6257 63.7729 73.3326 63.4799C73.0396 63.1868 72.875 62.7894 72.875 62.375V54.5625ZM76 60.6797C76.4578 60.5186 76.8543 60.2195 77.1348 59.8234C77.4153 59.4274 77.566 58.9541 77.566 58.4688C77.566 57.9834 77.4153 57.5101 77.1348 57.1141C76.8543 56.718 76.4578 56.4189 76 56.2578V60.6797ZM82.25 62.375V54.5625C82.25 54.1481 82.4146 53.7507 82.7076 53.4576C83.0007 53.1646 83.3981 53 83.8125 53H88.5C88.9144 53 89.3118 53.1646 89.6049 53.4576C89.8979 53.7507 90.0625 54.1481 90.0625 54.5625C90.0625 54.9769 89.8979 55.3743 89.6049 55.6674C89.3118 55.9604 88.9144 56.125 88.5 56.125H85.375V57.6875H88.5C88.9144 57.6875 89.3118 57.8521 89.6049 58.1451C89.8979 58.4382 90.0625 58.8356 90.0625 59.25C90.0625 59.6644 89.8979 60.0618 89.6049 60.3549C89.3118 60.6479 88.9144 60.8125 88.5 60.8125H85.375V62.375C85.375 62.7894 85.2104 63.1868 84.9174 63.4799C84.6243 63.7729 84.2269 63.9375 83.8125 63.9375C83.3981 63.9375 83.0007 63.7729 82.7076 63.4799C82.4146 63.1868 82.25 62.7894 82.25 62.375ZM77.5625 42.0625V31.125H63.5C62.2568 31.125 61.0645 31.6189 60.1854 32.4979C59.3064 33.377 58.8125 34.5693 58.8125 35.8125V48.3125C57.9837 48.3125 57.1888 48.6417 56.6028 49.2278C56.0167 49.8138 55.6875 50.6087 55.6875 51.4375V65.5C55.6875 66.3288 56.0167 67.1237 56.6028 67.7097C57.1888 68.2958 57.9837 68.625 58.8125 68.625V70.1875C58.8125 71.4307 59.3064 72.623 60.1854 73.5021C61.0645 74.3811 62.2568 74.875 63.5 74.875H88.5C89.7432 74.875 90.9355 74.3811 91.8146 73.5021C92.6936 72.623 93.1875 71.4307 93.1875 70.1875V68.625C94.0163 68.625 94.8112 68.2958 95.3972 67.7097C95.9833 67.1237 96.3125 66.3288 96.3125 65.5V51.4375C96.3125 50.6087 95.9833 49.8138 95.3972 49.2278C94.8112 48.6417 94.0163 48.3125 93.1875 48.3125V46.75H82.25C81.0068 46.75 79.8145 46.2561 78.9354 45.3771C78.0564 44.498 77.5625 43.3057 77.5625 42.0625ZM93.1875 51.4375V65.5H58.8125V51.4375H93.1875ZM80.6875 42.0625V31.3078C81.4509 31.5271 82.1461 31.9368 82.7078 32.4984L91.8141 41.6047C92.3757 42.1664 92.7854 42.8616 93.0047 43.625H82.25C81.8356 43.625 81.4382 43.4604 81.1451 43.1674C80.8521 42.8743 80.6875 42.4769 80.6875 42.0625Z" fill="#4F3FF0"/>
</svg>
